<svg width="104" height="24" viewBox="0 0 104 24" fill="none" xmlns="http://www.w3.org/2000/svg">
<path d="M104 12C104 18.6274 98.6274 24 92 24C85.3726 24 80 18.6274 80 12C80 5.37258 85.3726 0 92 0C98.6274 0 104 5.37258 104 12Z" fill="#3B48D0"/>
<path fill-rule="evenodd" clip-rule="evenodd" d="M5.9375 14.5L-5.19072e-07 12L5.9375 9.5L5.9375 11.567L8.63636 11.567L8.63636 12.433L5.9375 12.433L5.9375 14.5ZM15.5455 12.433L12.0909 12.433L12.0909 11.567L15.5455 11.567L15.5455 12.433ZM22.4545 12.433L19 12.433L19 11.567L22.4545 11.567L22.4545 12.433ZM29.3636 12.433L25.9091 12.433L25.9091 11.567L29.3636 11.567L29.3636 12.433ZM36.2727 12.433L32.8182 12.433L32.8182 11.567L36.2727 11.567L36.2727 12.433ZM43.1818 12.433L39.7273 12.433L39.7273 11.567L43.1818 11.567L43.1818 12.433ZM50.0909 12.433L46.6364 12.433L46.6364 11.567L50.0909 11.567L50.0909 12.433ZM57 12.433L53.5455 12.433L53.5455 11.567L57 11.567L57 12.433ZM63.9091 12.433L60.4546 12.433L60.4546 11.567L63.9091 11.567L63.9091 12.433ZM70.8182 12.433L67.3637 12.433L67.3637 11.567L70.8182 11.567L70.8182 12.433ZM76 12.433L74.2728 12.433L74.2728 11.567L76 11.567L76 12.433Z" fill="url(#paint0_linear_51_439)" fill-opacity="0.7"/>
<defs>
<linearGradient id="paint0_linear_51_439" x1="8.36" y1="9.97066" x2="8.59902" y2="16.8439" gradientUnits="userSpaceOnUse">
<stop stop-color="#15BFFD"/>
<stop offset="1" stop-color="#9C37FD"/>
</linearGradient>
</defs>
</svg>
