<svg width="169" height="33" viewBox="0 0 169 33" fill="none" xmlns="http://www.w3.org/2000/svg">
<g clip-path="url(#clip0_224_401)">
<path d="M3.43013 13.3203C3.43013 13.4342 3.43013 13.5236 3.43013 13.605V21.5825C3.42456 21.6652 3.44273 21.7478 3.48262 21.821C3.5225 21.8942 3.58254 21.9553 3.65602 21.9973C6.50057 23.9246 9.31166 25.86 12.1562 27.7629C12.2421 27.8198 12.3315 27.8714 12.4239 27.9174V15.9307C12.608 15.8657 15.6031 15.8657 15.8541 15.9307V27.893C15.988 27.893 16.0298 27.893 16.0968 27.7873C16.9334 27.2181 17.77 26.6651 18.6067 26.0958L24.6053 22.0298C24.94 21.8102 24.873 21.9241 24.873 21.5012V13.3041C25.2491 13.2799 25.6264 13.2799 26.0025 13.3041H28.2781C28.2781 13.4098 28.2781 13.4749 28.2781 13.5643V23.3228C28.2831 23.397 28.267 23.4712 28.2316 23.5371C28.1962 23.6031 28.1428 23.6584 28.0774 23.6969C27.2909 24.2173 26.5212 24.7703 25.7348 25.3233C22.0369 27.8442 18.3138 30.3652 14.6243 32.8861L14.3984 33.0406C14.3315 32.9512 14.2394 32.8861 14.1725 32.7967C14.1043 32.8839 14.0287 32.9655 13.9466 33.0406L13.7626 32.9105L3.89864 26.1609L0.317848 23.7213C0.234998 23.6711 0.167824 23.5999 0.123587 23.5154C0.0793506 23.4308 0.0597341 23.3361 0.0668582 23.2415V13.3447C1.18642 13.2708 2.30955 13.2626 3.43013 13.3203Z" fill="white"/>
<path d="M28.2444 12.4665H24.8393C24.8393 12.377 24.8393 12.312 24.8393 12.2469V11.3849C24.8472 11.322 24.8345 11.2582 24.803 11.2027C24.7714 11.1472 24.7226 11.1028 24.6636 11.0759C23.8269 10.5067 22.9485 9.92114 22.0951 9.3275L16.0964 5.26146C16.0042 5.20625 15.9148 5.14654 15.8287 5.08255V14.898H12.3985V5.13948L12.1475 5.26959C11.2021 5.90389 10.2818 6.5382 9.32808 7.1725C7.43729 8.4655 5.5465 9.74224 3.67244 11.0352C3.67244 11.0352 3.58041 11.1003 3.53858 11.1166C3.50091 11.1394 3.47069 11.1721 3.45143 11.211C3.43218 11.2499 3.42468 11.2933 3.42981 11.3361V12.1981C3.44214 12.2708 3.44214 12.345 3.42981 12.4177H-0.000382883C-0.000382883 12.3526 -0.000382883 12.2632 -0.000382883 12.1981V9.66092C-0.00440887 9.58681 0.012098 9.513 0.0474159 9.4472C0.0827337 9.38141 0.135569 9.32603 0.200409 9.28684C2.04937 8.04263 3.89833 6.77403 5.74729 5.52169L13.6618 0.130113L13.8626 0C13.9296 0.0894529 13.9965 0.15451 14.0885 0.260227C14.1558 0.167203 14.2314 0.0801236 14.3144 0C14.3563 0 14.4232 0.0650567 14.4734 0.0813208L25.4249 7.56284C26.2615 8.13208 27.0982 8.71759 27.9348 9.28684C28.0161 9.334 28.082 9.40255 28.125 9.48456C28.1679 9.56658 28.1861 9.65873 28.1774 9.75037C28.1774 10.5636 28.1774 11.3768 28.1774 12.19C28.2149 12.2781 28.2375 12.3714 28.2444 12.4665Z" fill="white"/>
<path d="M39.1287 19.1917C39.9653 15.9389 40.8019 12.7511 41.7222 9.50641H44.8596C45.1022 9.50641 45.1022 9.50641 45.1524 9.72598C45.6879 11.8322 46.2066 13.9384 46.7504 16.0609C47.0181 17.0936 47.2691 18.1427 47.5368 19.1755C47.5605 19.2434 47.5913 19.3088 47.6289 19.3706C47.791 18.8366 47.9195 18.2934 48.0137 17.7442C48.1476 17.1912 48.2647 16.6464 48.3735 16.1178C48.4822 15.5892 48.6245 15.02 48.7332 14.4914C48.842 13.9628 48.9842 13.3935 49.093 12.865C49.2017 12.3364 49.344 11.7671 49.4527 11.1979C49.5615 10.6286 49.7037 10.1001 49.8125 9.57147H52.657C52.657 9.67718 52.657 9.79103 52.5901 9.87235L49.2436 23.4855C49.2463 23.5206 49.2463 23.556 49.2436 23.5912C49.2436 23.6806 49.1766 23.705 49.1097 23.705H46.2317C46.2317 23.64 46.2317 23.5505 46.1648 23.4855L43.5043 13.3041C43.5043 13.2309 43.5043 13.1252 43.362 13.0845C42.4166 16.6057 41.4963 20.1188 40.5509 23.6562H40.2999H37.6478C37.4052 23.6562 37.4052 23.6562 37.3299 23.4204C36.8363 21.3793 36.3678 19.3544 35.8658 17.2807C35.3638 15.207 34.8284 12.9463 34.3097 10.775C34.226 10.4253 34.134 10.0757 34.067 9.72598C34.0532 9.65341 34.0532 9.57898 34.067 9.50641H36.7024C36.9534 9.50641 36.9534 9.50641 36.9952 9.72598C37.2462 10.8889 37.514 12.0518 37.7649 13.1902C38.1916 15.1175 38.6016 17.0692 39.0534 18.9966C39.0611 19.0532 39.0611 19.1106 39.0534 19.1673C39.0868 19.1917 39.1119 19.1917 39.1287 19.1917Z" fill="white"/>
<path d="M67.5078 9.50644H73.7324C74.4136 9.49313 75.0945 9.54488 75.7654 9.66095C76.4608 9.77714 77.1053 10.0909 77.6175 10.5627C78.1297 11.0345 78.4867 11.6432 78.6434 12.312C78.8175 13.0229 78.7483 13.7696 78.4464 14.4388C78.1444 15.108 77.6261 15.6632 76.9701 16.0202L76.7693 16.126C76.841 16.1652 76.9083 16.2115 76.9701 16.2642C77.5283 16.4521 78.0368 16.7575 78.4593 17.1587C79.0364 17.756 79.3722 18.5357 79.4047 19.3544C79.4379 20.2779 79.1716 21.1883 78.6434 21.9567C78.3589 22.3707 77.9888 22.7227 77.5567 22.9901C77.1246 23.2575 76.6399 23.4345 76.1335 23.5099C75.7989 23.5099 75.4391 23.5749 75.0961 23.5993C72.6615 23.6807 70.2269 23.64 67.8174 23.64H67.6835C67.6653 23.6428 67.6466 23.6413 67.6291 23.6358C67.6115 23.6302 67.5956 23.6207 67.5825 23.608C67.5695 23.5953 67.5597 23.5798 67.554 23.5628C67.5483 23.5457 67.5468 23.5276 67.5496 23.5099V9.75853C67.5289 9.6757 67.5149 9.5914 67.5078 9.50644ZM72.5276 21.3224H73.5818C74.0085 21.3224 74.4184 21.3224 74.8451 21.2573C75.205 21.2368 75.5485 21.1038 75.8244 20.8781C76.1003 20.6524 76.2938 20.3462 76.3761 20.005C76.4232 19.7884 76.4457 19.5675 76.4431 19.3463C76.4484 18.9177 76.2908 18.5023 76.0006 18.1797C75.7104 17.8571 75.3078 17.6499 74.8702 17.5979C74.3419 17.5148 73.8073 17.4767 73.2722 17.484H70.4611C70.3105 17.484 70.2854 17.484 70.2854 17.6629V21.2085C70.2826 21.2262 70.2841 21.2444 70.2898 21.2614C70.2955 21.2785 70.3053 21.294 70.3183 21.3066C70.3314 21.3193 70.3473 21.3288 70.3649 21.3344C70.3824 21.34 70.4011 21.3414 70.4193 21.3386H70.5783C71.2559 21.3224 71.8834 21.3224 72.5192 21.3224H72.5276ZM72.4607 11.8078C71.8499 11.8078 71.2392 11.8078 70.6285 11.8078H70.4695C70.4513 11.805 70.4326 11.8065 70.4151 11.812C70.3975 11.8176 70.3816 11.8271 70.3685 11.8398C70.3555 11.8525 70.3457 11.868 70.34 11.885C70.3343 11.9021 70.3328 11.9202 70.3356 11.9379V15.0037C70.3356 15.1176 70.3858 15.1582 70.4946 15.142H73.4228C73.8013 15.1455 74.1794 15.1156 74.5523 15.0525C74.8767 15.015 75.1812 14.8807 75.4239 14.6681C75.6666 14.4554 75.8356 14.175 75.9076 13.8652C75.9662 13.6273 75.9662 13.3794 75.9076 13.1415C75.8833 12.8838 75.7838 12.6382 75.6208 12.4336C75.4577 12.229 75.238 12.074 74.9873 11.9867C74.7787 11.9074 74.5584 11.8607 74.3347 11.8485C73.7073 11.8322 73.0798 11.8322 72.4523 11.8078H72.4607Z" fill="white"/>
<path d="M94.0459 9.50641H100.538C101.247 9.51278 101.955 9.57259 102.655 9.68531C103.268 9.77652 103.843 10.0317 104.316 10.4223C104.789 10.8129 105.141 11.3235 105.332 11.8972C105.706 12.8543 105.736 13.9063 105.416 14.8817C105.255 15.3701 104.982 15.8168 104.618 16.1886C104.255 16.5603 103.81 16.8474 103.316 17.0286C102.944 17.169 102.561 17.2778 102.17 17.3539L101.877 17.4189C101.934 17.4752 102.002 17.5195 102.078 17.549C102.846 18.0019 103.501 18.6159 103.993 19.3462L105.617 21.8265C105.951 22.347 106.294 22.9 106.629 23.4529C106.679 23.518 106.696 23.583 106.763 23.6725C106.679 23.6725 106.604 23.6725 106.537 23.6725H103.609C103.541 23.6783 103.473 23.6644 103.413 23.6325C103.354 23.6006 103.305 23.5523 103.274 23.4936C102.437 22.3144 101.668 21.1109 100.881 19.9236C100.613 19.5333 100.321 19.1592 100.045 18.7607C99.953 18.6349 99.8493 18.5178 99.735 18.411C99.333 18.0147 98.7926 17.7797 98.2207 17.7523C97.8359 17.7523 97.4761 17.7523 97.0913 17.7523H96.8737V23.6644C96.6313 23.6765 96.3883 23.6765 96.1459 23.6644H94.071C94.0208 23.4936 93.9957 9.7585 94.0459 9.50641ZM96.8821 15.516H97.1331H99.5593C100.161 15.5257 100.762 15.4904 101.358 15.4103C101.654 15.3652 101.932 15.2409 102.159 15.0514C102.387 14.8618 102.555 14.6144 102.647 14.3369C102.732 14.052 102.763 13.7544 102.739 13.4586C102.717 13.1215 102.587 12.7995 102.368 12.5372C102.149 12.2749 101.852 12.0853 101.517 11.9948C101.244 11.9251 100.962 11.8949 100.68 11.9054C99.484 11.9054 98.2876 11.9054 97.1164 11.9054C97.0745 11.9054 97.0076 11.9054 96.9407 11.9054C96.8821 13.0845 96.8821 14.2881 96.8821 15.516Z" fill="white"/>
<path d="M126.524 23.64C126.432 23.64 126.365 23.64 126.298 23.64H124.022C124.008 23.6412 123.993 23.6393 123.979 23.6344C123.965 23.6296 123.953 23.6218 123.943 23.6117C123.932 23.6017 123.924 23.5895 123.919 23.5761C123.914 23.5627 123.912 23.5484 123.914 23.5342V9.75848C123.906 9.67188 123.906 9.58486 123.914 9.49826C124.006 9.49826 124.047 9.49826 124.123 9.49826H126.465C126.527 9.49637 126.588 9.51238 126.64 9.54425C126.692 9.57612 126.733 9.6224 126.758 9.67716L129.143 13.5806L132.322 18.7526C132.379 18.8197 132.432 18.8903 132.481 18.964C132.492 18.9056 132.509 18.8484 132.531 18.7932V9.75848C132.523 9.67192 132.523 9.58482 132.531 9.49826H135.099C135.15 9.65277 135.15 23.3228 135.099 23.6318H134.882H132.514C132.443 23.6392 132.371 23.6242 132.31 23.5891C132.248 23.554 132.199 23.5005 132.171 23.4367C130.749 21.1109 129.31 18.8095 127.871 16.5081C127.486 15.8738 127.076 15.2395 126.691 14.6052C126.64 14.5357 126.596 14.4623 126.557 14.3856C126.54 14.4418 126.526 14.4988 126.515 14.5564V23.3553C126.505 23.4501 126.508 23.5459 126.524 23.64Z" fill="white"/>
<path d="M121.588 16.6057C121.608 17.687 121.432 18.7632 121.069 19.7854C120.774 20.6688 120.27 21.4726 119.597 22.1322C118.924 22.7918 118.102 23.2887 117.195 23.5831C116.387 23.8469 115.537 23.9654 114.685 23.9327C113.86 23.9478 113.037 23.8296 112.251 23.5831C111.321 23.2918 110.476 22.7873 109.789 22.1122C109.102 21.4371 108.592 20.6111 108.302 19.704C108.074 19.0293 107.931 18.3303 107.875 17.6222C107.833 16.9587 107.833 16.2934 107.875 15.6299C107.931 14.4703 108.272 13.3407 108.871 12.3364C109.341 11.5155 110.009 10.818 110.818 10.3037C111.627 9.78952 112.552 9.47403 113.514 9.38443C114.207 9.29094 114.909 9.27457 115.606 9.33564C116.884 9.42153 118.105 9.88497 119.106 10.6639C120.106 11.4429 120.838 12.5002 121.203 13.6944C121.407 14.345 121.533 15.0162 121.579 15.6949C121.562 15.9714 121.588 16.3048 121.588 16.6057ZM118.684 16.5651C118.684 16.256 118.684 15.9552 118.634 15.6705C118.6 15.0982 118.47 14.5352 118.249 14.0035C118.07 13.5164 117.781 13.0746 117.403 12.7102C117.025 12.3458 116.568 12.068 116.066 11.8972C115.479 11.7062 114.855 11.6478 114.242 11.7265C113.788 11.7563 113.345 11.8738 112.938 12.0721C112.532 12.2704 112.17 12.5455 111.874 12.8812C111.459 13.3523 111.159 13.9082 110.996 14.5076C110.792 15.2855 110.707 16.0884 110.745 16.8903C110.757 17.5833 110.872 18.2709 111.088 18.9315C111.245 19.4187 111.501 19.8701 111.842 20.2586C112.183 20.6471 112.601 20.9646 113.071 21.1922C113.645 21.4558 114.277 21.576 114.911 21.5419C115.517 21.5253 116.107 21.3572 116.626 21.054C117.431 20.5676 118.026 19.8131 118.3 18.9315C118.524 18.1604 118.654 17.366 118.684 16.5651Z" fill="white"/>
<path d="M168.565 13.5237L165.771 13.6538C165.771 13.5643 165.771 13.4993 165.704 13.4342C165.665 13.2434 165.603 13.0578 165.52 12.8813C165.417 12.5922 165.238 12.3339 165.002 12.1315C164.766 11.9292 164.481 11.7897 164.173 11.7265C163.393 11.526 162.571 11.5486 161.805 11.7916C161.598 11.8617 161.401 11.9573 161.219 12.0762C161.058 12.1735 160.923 12.3083 160.829 12.4686C160.734 12.6288 160.682 12.8094 160.677 12.9941C160.672 13.1788 160.714 13.3619 160.8 13.5267C160.886 13.6915 161.013 13.833 161.169 13.9384C161.338 14.0538 161.521 14.1494 161.713 14.223C162.36 14.4886 163.033 14.6928 163.721 14.833C164.577 15.0239 165.416 15.2795 166.231 15.5974C166.83 15.8258 167.376 16.1687 167.837 16.6057C168.49 17.2666 168.881 18.1309 168.941 19.0454C169.018 19.6815 168.947 20.3263 168.732 20.932C168.525 21.5596 168.164 22.1289 167.68 22.5907C167.196 23.0526 166.604 23.3931 165.955 23.5831C165.315 23.7695 164.655 23.8787 163.989 23.9084C163.509 23.9328 163.029 23.9328 162.549 23.9084C161.624 23.8784 160.719 23.6389 159.906 23.209C158.906 22.6476 158.16 21.7422 157.814 20.6718C157.654 20.2319 157.541 19.7766 157.479 19.3137V19.1104L160.207 18.8421C160.22 18.9484 160.248 19.0524 160.291 19.1511C160.386 19.4636 160.501 19.7705 160.634 20.07C160.8 20.4383 161.057 20.761 161.383 21.0093C161.708 21.2576 162.092 21.4238 162.499 21.4931C163.218 21.6287 163.96 21.6009 164.666 21.4118C165.133 21.2764 165.537 20.9893 165.812 20.5986C165.967 20.4083 166.075 20.1868 166.13 19.9505C166.185 19.7141 166.185 19.4688 166.13 19.2324C166.058 18.9249 165.874 18.6533 165.612 18.468C165.34 18.2707 165.034 18.122 164.708 18.0289L162.483 17.4434C161.679 17.2565 160.899 16.9838 160.157 16.6301C159.681 16.4082 159.257 16.096 158.907 15.7119C158.558 15.3278 158.292 14.8796 158.124 14.3938C157.838 13.5102 157.897 12.5553 158.289 11.711C158.681 10.8667 159.378 10.1921 160.249 9.81546C160.912 9.53473 161.619 9.36429 162.34 9.31127C162.897 9.27141 163.457 9.27141 164.014 9.31127C164.739 9.3555 165.45 9.52628 166.114 9.81546C166.73 10.0866 167.267 10.5031 167.676 11.0271C168.085 11.5511 168.353 12.166 168.456 12.8162C168.456 13.0195 168.456 13.2147 168.523 13.3854L168.565 13.5237Z" fill="white"/>
<path d="M64.1529 17.3945H57.3427C57.0331 17.3945 57.0331 17.3945 57.0331 17.7035V21.1434C57.0331 21.3142 57.0331 21.3386 57.2339 21.3386H64.9895V23.64C64.8305 23.6806 54.5065 23.705 54.2388 23.64C54.2388 23.5586 54.2388 23.4448 54.2388 23.3553V9.7585C54.2277 9.66393 54.2277 9.56845 54.2388 9.47388H64.7134C64.7134 10.2871 64.7134 11.0352 64.7134 11.824H57.3427C57.0331 11.824 57.0331 11.7753 57.0331 12.1249V14.8817C57.0331 15.0118 57.0331 15.0281 57.2088 15.0525H63.9019C64.2365 15.0525 64.2365 15.0525 64.2365 15.3615V17.0774C64.178 17.2238 64.178 17.2888 64.1529 17.3945Z" fill="white"/>
<path d="M155.614 13.3854L152.845 14.0441C152.823 13.9697 152.798 13.8965 152.769 13.8245C152.617 13.2807 152.313 12.7883 151.891 12.4014C151.321 11.8968 150.57 11.6284 149.799 11.6533C149.274 11.6399 148.752 11.7505 148.28 11.9757C147.808 12.2009 147.399 12.5339 147.089 12.9463C146.778 13.3778 146.556 13.8639 146.436 14.3775C146.261 15.1597 146.185 15.96 146.21 16.7602C146.198 17.4796 146.291 18.197 146.486 18.8908C146.638 19.5528 146.981 20.1592 147.474 20.6392C148.038 21.1707 148.788 21.4756 149.573 21.4931C149.955 21.5225 150.338 21.478 150.701 21.3621C151.065 21.2462 151.401 21.0613 151.69 20.8181C152.05 20.5271 152.336 20.1599 152.527 19.7447C152.686 19.4113 152.778 19.0616 152.912 18.7119C152.912 18.6469 152.953 18.5818 152.979 18.4924L155.614 19.3462V19.4113C155.394 20.2921 154.996 21.1215 154.443 21.8509C153.821 22.6773 152.94 23.2852 151.933 23.583C150.625 23.9906 149.222 24.0132 147.9 23.6481C147.075 23.433 146.308 23.0449 145.653 22.511C144.998 21.9772 144.472 21.3106 144.11 20.5579C143.709 19.7762 143.457 18.9304 143.366 18.0614C143.293 17.4297 143.271 16.7935 143.299 16.1584C143.308 15.0039 143.562 13.8635 144.043 12.808C144.443 11.9016 145.072 11.1083 145.872 10.5025C146.672 9.89665 147.618 9.49798 148.62 9.34376C149.716 9.14269 150.845 9.19563 151.916 9.49827C152.75 9.71057 153.514 10.1281 154.134 10.7107C154.754 11.2932 155.209 12.0212 155.455 12.8243C155.455 12.9544 155.539 13.1089 155.589 13.239C155.581 13.2637 155.58 13.2897 155.584 13.315C155.589 13.3404 155.599 13.3644 155.614 13.3854Z" fill="white"/>
<path d="M87.8877 23.6399C87.7957 23.6399 87.7288 23.6399 87.6619 23.6399H85.152C85.137 23.6411 85.1219 23.6392 85.1078 23.6344C85.0936 23.6295 85.0806 23.6219 85.0696 23.612C85.0586 23.6021 85.0498 23.59 85.0438 23.5766C85.0378 23.5633 85.0348 23.5488 85.0348 23.5342V12.1981C85.0426 12.0789 85.0426 11.9594 85.0348 11.8403H80.8517C80.7799 11.0693 80.7799 10.2936 80.8517 9.52264H92.0291C92.0395 9.51762 92.0509 9.51501 92.0625 9.51501C92.0742 9.51501 92.0856 9.51762 92.096 9.52264C92.1504 10.297 92.1504 11.0741 92.096 11.8484H88.1973C87.9045 11.8484 87.9045 11.8484 87.9045 12.133V23.3391C87.8865 23.4383 87.8808 23.5394 87.8877 23.6399Z" fill="white"/>
<path d="M140.973 23.64H138.22C138.178 23.4936 138.153 9.81544 138.22 9.53082C138.354 9.49016 140.73 9.46576 140.989 9.53082C140.998 9.68533 141.023 23.3798 140.973 23.64Z" fill="white"/>
</g>
<defs>
<clipPath id="clip0_224_401">
<rect width="169" height="33" fill="white"/>
</clipPath>
</defs>
</svg>
