<svg width="175" height="892" viewBox="0 0 175 892" fill="none" xmlns="http://www.w3.org/2000/svg">
<path fill-rule="evenodd" clip-rule="evenodd" d="M93 6C94.1046 6 95 6.89543 95 8L95 881C95 882.105 94.1045 883 93 883C91.8954 883 91 882.105 91 881L91 8C91 6.89543 91.8954 6 93 6Z" fill="url(#paint0_linear_3586_255)"/>
<path d="M104 12C104 18.6274 98.6274 24 92 24C85.3726 24 80 18.6274 80 12C80 5.37258 85.3726 0 92 0C98.6274 0 104 5.37258 104 12Z" fill="#3B48D0"/>
<path fill-rule="evenodd" clip-rule="evenodd" d="M5.9375 14.5L-5.19072e-07 12L5.9375 9.5L5.9375 11.567L8.63636 11.567L8.63636 12.433L5.9375 12.433L5.9375 14.5ZM15.5455 12.433L12.0909 12.433L12.0909 11.567L15.5455 11.567L15.5455 12.433ZM22.4545 12.433L19 12.433L19 11.567L22.4545 11.567L22.4545 12.433ZM29.3636 12.433L25.9091 12.433L25.9091 11.567L29.3636 11.567L29.3636 12.433ZM36.2727 12.433L32.8182 12.433L32.8182 11.567L36.2727 11.567L36.2727 12.433ZM43.1818 12.433L39.7273 12.433L39.7273 11.567L43.1818 11.567L43.1818 12.433ZM50.0909 12.433L46.6364 12.433L46.6364 11.567L50.0909 11.567L50.0909 12.433ZM57 12.433L53.5455 12.433L53.5455 11.567L57 11.567L57 12.433ZM63.9091 12.433L60.4546 12.433L60.4546 11.567L63.9091 11.567L63.9091 12.433ZM70.8182 12.433L67.3637 12.433L67.3637 11.567L70.8182 11.567L70.8182 12.433ZM76 12.433L74.2727 12.433L74.2727 11.567L76 11.567L76 12.433Z" fill="url(#paint1_linear_3586_255)" fill-opacity="0.7"/>
<path d="M104 384C104 390.627 98.6274 396 92 396C85.3726 396 80 390.627 80 384C80 377.373 85.3726 372 92 372C98.6274 372 104 377.373 104 384Z" fill="#3B48D0"/>
<path fill-rule="evenodd" clip-rule="evenodd" d="M5.9375 387L-6.22886e-07 384L5.9375 381L5.9375 383.48L8.63636 383.48L8.63636 384.52L5.9375 384.52L5.9375 387ZM15.5455 384.52L12.0909 384.52L12.0909 383.48L15.5455 383.48L15.5455 384.52ZM22.4545 384.52L19 384.52L19 383.48L22.4545 383.48L22.4545 384.52ZM29.3636 384.52L25.9091 384.52L25.9091 383.48L29.3636 383.48L29.3636 384.52ZM36.2727 384.52L32.8182 384.52L32.8182 383.48L36.2727 383.48L36.2727 384.52ZM43.1818 384.52L39.7273 384.52L39.7273 383.48L43.1818 383.48L43.1818 384.52ZM50.0909 384.52L46.6364 384.52L46.6364 383.48L50.0909 383.48L50.0909 384.52ZM57 384.52L53.5455 384.52L53.5455 383.48L57 383.48L57 384.52ZM63.9091 384.52L60.4546 384.52L60.4546 383.48L63.9091 383.48L63.9091 384.52ZM70.8182 384.52L67.3637 384.52L67.3637 383.48L70.8182 383.48L70.8182 384.52ZM76 384.52L74.2727 384.52L74.2727 383.48L76 383.48L76 384.52Z" fill="url(#paint2_linear_3586_255)" fill-opacity="0.7"/>
<path fill-rule="evenodd" clip-rule="evenodd" d="M5.9375 759L-6.22886e-07 756L5.9375 753L5.9375 755.48L8.63636 755.48L8.63636 756.52L5.9375 756.52L5.9375 759ZM15.5455 756.52L12.0909 756.52L12.0909 755.48L15.5455 755.48L15.5455 756.52ZM22.4545 756.52L19 756.52L19 755.48L22.4545 755.48L22.4545 756.52ZM29.3636 756.52L25.9091 756.52L25.9091 755.48L29.3636 755.48L29.3636 756.52ZM36.2727 756.52L32.8182 756.52L32.8182 755.48L36.2727 755.48L36.2727 756.52ZM43.1818 756.52L39.7273 756.52L39.7273 755.48L43.1818 755.48L43.1818 756.52ZM50.0909 756.52L46.6364 756.52L46.6364 755.48L50.0909 755.48L50.0909 756.52ZM57 756.52L53.5455 756.52L53.5455 755.48L57 755.48L57 756.52ZM63.9091 756.52L60.4546 756.52L60.4546 755.48L63.9091 755.48L63.9091 756.52ZM70.8182 756.52L67.3637 756.52L67.3637 755.48L70.8182 755.48L70.8182 756.52ZM76 756.52L74.2727 756.52L74.2727 755.48L76 755.48L76 756.52Z" fill="url(#paint3_linear_3586_255)" fill-opacity="0.7"/>
<path d="M104 756C104 762.627 98.6274 768 92 768C85.3726 768 80 762.627 80 756C80 749.373 85.3726 744 92 744C98.6274 744 104 749.373 104 756Z" fill="#3B48D0"/>
<path fill-rule="evenodd" clip-rule="evenodd" d="M167.594 132L174 135L167.594 138L167.594 135.52L164.682 135.52L164.682 134.48L167.594 134.48L167.594 132ZM157.227 134.48L160.955 134.48L160.955 135.52L157.227 135.52L157.227 134.48ZM149.773 134.48L153.5 134.48L153.5 135.52L149.773 135.52L149.773 134.48ZM142.318 134.48L146.045 134.48L146.045 135.52L142.318 135.52L142.318 134.48ZM134.864 134.48L138.591 134.48L138.591 135.52L134.864 135.52L134.864 134.48ZM127.409 134.48L131.136 134.48L131.136 135.52L127.409 135.52L127.409 134.48ZM119.955 134.48L123.682 134.48L123.682 135.52L119.955 135.52L119.955 134.48ZM112.5 134.48L116.227 134.48L116.227 135.52L112.5 135.52L112.5 134.48ZM105.045 134.48L108.773 134.48L108.773 135.52L105.045 135.52L105.045 134.48ZM97.5909 134.48L101.318 134.48L101.318 135.52L97.5909 135.52L97.5909 134.48ZM92 134.48L93.8636 134.48L93.8636 135.52L92 135.52L92 134.48Z" fill="url(#paint4_linear_3586_255)" fill-opacity="0.7"/>
<path d="M104 136C104 142.627 98.6274 148 92 148C85.3726 148 80 142.627 80 136C80 129.373 85.3726 124 92 124C98.6274 124 104 129.373 104 136Z" fill="#3B48D0"/>
<path fill-rule="evenodd" clip-rule="evenodd" d="M168.594 505L175 508L168.594 511L168.594 508.52L165.682 508.52L165.682 507.48L168.594 507.48L168.594 505ZM158.227 507.48L161.955 507.48L161.955 508.52L158.227 508.52L158.227 507.48ZM150.773 507.48L154.5 507.48L154.5 508.52L150.773 508.52L150.773 507.48ZM143.318 507.48L147.045 507.48L147.045 508.52L143.318 508.52L143.318 507.48ZM135.864 507.48L139.591 507.48L139.591 508.52L135.864 508.52L135.864 507.48ZM128.409 507.48L132.136 507.48L132.136 508.52L128.409 508.52L128.409 507.48ZM120.955 507.48L124.682 507.48L124.682 508.52L120.955 508.52L120.955 507.48ZM113.5 507.48L117.227 507.48L117.227 508.52L113.5 508.52L113.5 507.48ZM106.045 507.48L109.773 507.48L109.773 508.52L106.045 508.52L106.045 507.48ZM98.5909 507.48L102.318 507.48L102.318 508.52L98.5909 508.52L98.5909 507.48ZM93 507.48L94.8636 507.48L94.8636 508.52L93 508.52L93 507.48Z" fill="url(#paint5_linear_3586_255)" fill-opacity="0.7"/>
<path d="M104 508C104 514.627 98.6274 520 92 520C85.3726 520 80 514.627 80 508C80 501.373 85.3726 496 92 496C98.6274 496 104 501.373 104 508Z" fill="#3B48D0"/>
<path fill-rule="evenodd" clip-rule="evenodd" d="M167.594 877L174 880L167.594 883L167.594 880.52L164.682 880.52L164.682 879.48L167.594 879.48L167.594 877ZM157.227 879.48L160.955 879.48L160.955 880.52L157.227 880.52L157.227 879.48ZM149.773 879.48L153.5 879.48L153.5 880.52L149.773 880.52L149.773 879.48ZM142.318 879.48L146.045 879.48L146.045 880.52L142.318 880.52L142.318 879.48ZM134.864 879.48L138.591 879.48L138.591 880.52L134.864 880.52L134.864 879.48ZM127.409 879.48L131.136 879.48L131.136 880.52L127.409 880.52L127.409 879.48ZM119.955 879.48L123.682 879.48L123.682 880.52L119.955 880.52L119.955 879.48ZM112.5 879.48L116.227 879.48L116.227 880.52L112.5 880.52L112.5 879.48ZM105.045 879.48L108.773 879.48L108.773 880.52L105.045 880.52L105.045 879.48ZM97.5909 879.48L101.318 879.48L101.318 880.52L97.5909 880.52L97.5909 879.48ZM92 879.48L93.8636 879.48L93.8636 880.52L92 880.52L92 879.48Z" fill="url(#paint6_linear_3586_255)" fill-opacity="0.7"/>
<path d="M104 880C104 886.627 98.6274 892 92 892C85.3726 892 80 886.627 80 880C80 873.373 85.3726 868 92 868C98.6274 868 104 873.373 104 880Z" fill="#3B48D0"/>
<defs>
<linearGradient id="paint0_linear_3586_255" x1="95" y1="444.5" x2="91" y2="444.5" gradientUnits="userSpaceOnUse">
<stop stop-color="#1FF2FF"/>
<stop offset="0.52662" stop-color="#27F9E5"/>
<stop offset="1" stop-color="#2FFFCD"/>
</linearGradient>
<linearGradient id="paint1_linear_3586_255" x1="8.36" y1="9.97066" x2="8.59902" y2="16.8439" gradientUnits="userSpaceOnUse">
<stop stop-color="#15BFFD"/>
<stop offset="1" stop-color="#9C37FD"/>
</linearGradient>
<linearGradient id="paint2_linear_3586_255" x1="8.36" y1="381.565" x2="8.70401" y2="389.808" gradientUnits="userSpaceOnUse">
<stop stop-color="#15BFFD"/>
<stop offset="1" stop-color="#9C37FD"/>
</linearGradient>
<linearGradient id="paint3_linear_3586_255" x1="8.36" y1="753.565" x2="8.70401" y2="761.808" gradientUnits="userSpaceOnUse">
<stop stop-color="#15BFFD"/>
<stop offset="1" stop-color="#9C37FD"/>
</linearGradient>
<linearGradient id="paint4_linear_3586_255" x1="164.98" y1="137.435" x2="164.661" y2="129.19" gradientUnits="userSpaceOnUse">
<stop stop-color="#15BFFD"/>
<stop offset="1" stop-color="#9C37FD"/>
</linearGradient>
<linearGradient id="paint5_linear_3586_255" x1="165.98" y1="510.435" x2="165.661" y2="502.19" gradientUnits="userSpaceOnUse">
<stop stop-color="#15BFFD"/>
<stop offset="1" stop-color="#9C37FD"/>
</linearGradient>
<linearGradient id="paint6_linear_3586_255" x1="164.98" y1="882.435" x2="164.661" y2="874.19" gradientUnits="userSpaceOnUse">
<stop stop-color="#15BFFD"/>
<stop offset="1" stop-color="#9C37FD"/>
</linearGradient>
</defs>
</svg>
