<svg width="181" height="230" viewBox="0 0 181 230" fill="none" xmlns="http://www.w3.org/2000/svg">
<g filter="url(#filter0_b_21_442)">
<path d="M174.694 196.301C178.668 193.275 181 188.567 181 183.573L181 16C181 7.16344 173.837 0 165 0L16 0C7.16344 0 0 7.16345 0 16L0 214C0 222.837 7.16347 230 16 230L125.049 230C128.551 230 131.957 228.851 134.743 226.729L174.694 196.301Z" fill="white" fill-opacity="0.05"/>
<path d="M180.5 183.573C180.5 188.411 178.241 192.972 174.391 195.904L134.44 226.331C131.741 228.387 128.442 229.5 125.049 229.5L16 229.5C7.43961 229.5 0.5 222.56 0.5 214L0.5 16C0.5 7.43959 7.43958 0.5 16 0.5L165 0.5C173.56 0.5 180.5 7.43958 180.5 16L180.5 183.573Z" stroke="url(#paint0_linear_21_442)" stroke-opacity="0.7"/>
</g>
<defs>
<filter id="filter0_b_21_442" x="-10" y="-10" width="201" height="250" filterUnits="userSpaceOnUse" color-interpolation-filters="sRGB">
<feFlood flood-opacity="0" result="BackgroundImageFix"/>
<feGaussianBlur in="BackgroundImageFix" stdDeviation="5"/>
<feComposite in2="SourceAlpha" operator="in" result="effect1_backgroundBlur_21_442"/>
<feBlend mode="normal" in="SourceGraphic" in2="effect1_backgroundBlur_21_442" result="shape"/>
</filter>
<linearGradient id="paint0_linear_21_442" x1="161.09" y1="208.35" x2="14.5698" y2="-9.78639" gradientUnits="userSpaceOnUse">
<stop stop-color="#15BFFD"/>
<stop offset="1" stop-color="#9C37FD"/>
</linearGradient>
</defs>
</svg>
