<svg width="748" height="186" viewBox="0 0 748 186" fill="none" xmlns="http://www.w3.org/2000/svg">
<path fill-rule="evenodd" clip-rule="evenodd" d="M43.2998 183H0.799805V0.0999756H155.89V38.55H43.2998V77.32H151.84V115.5H43.2998V183ZM42.2998 182H1.7998V1.09998H154.89V37.55H42.2998V78.32H150.84V114.5H42.2998V182ZM213.632 183H171.132V45.73H210.662V81.64H211.255C213.256 70.8817 217.818 61.3247 225.283 54.4006C232.951 47.2877 243.6 43.03 257.452 43.03C272.822 43.03 283.794 48.3262 290.899 57.1033C297.976 65.8459 301.112 77.9116 301.112 91.28V114.69H258.612V99.65C258.612 92.3245 257.141 87.3261 253.883 84.1301C250.619 80.9283 245.343 79.32 237.202 79.32C228.289 79.32 222.48 81.3833 218.869 85.3083C215.241 89.2518 213.632 95.2869 213.632 103.7V183ZM212.092 82.64C215.872 60.77 230.182 44.03 257.452 44.03C287.692 44.03 300.112 64.82 300.112 91.28V113.69H259.612V99.65C259.612 84.8 253.672 78.32 237.202 78.32C219.112 78.32 212.632 86.69 212.632 103.7V182H172.132V46.73H209.662V82.64H212.092ZM443.462 166.34C429.71 178.755 410.149 185.7 386.868 185.7C363.587 185.7 344.027 178.755 330.275 166.34C316.512 153.916 308.648 136.086 308.648 114.5C308.648 92.6467 316.51 74.7488 330.275 62.3227C344.029 49.9063 363.59 43.03 386.868 43.03C410.147 43.03 429.708 49.9063 443.462 62.3227C457.227 74.7488 465.088 92.6467 465.088 114.5C465.088 136.086 457.225 153.916 443.462 166.34ZM358.74 139.835C364.264 145.166 373.186 147.79 386.868 147.79C400.413 147.79 409.338 145.168 414.897 139.833C420.445 134.51 422.858 126.275 422.858 114.5C422.858 102.725 420.445 94.3481 414.889 88.8882C409.327 83.4228 400.402 80.67 386.868 80.67C373.197 80.67 364.275 83.424 358.749 88.8862C353.227 94.3438 350.878 102.719 350.878 114.5C350.878 126.282 353.227 134.515 358.74 139.835ZM522.128 183H479.628V45.73H519.158V87.31H519.737C521.63 76.0882 526.618 65.1417 535.502 56.9306C544.621 48.5018 557.767 43.03 575.668 43.03C594.387 43.03 608.307 49.0491 617.541 58.9751C626.764 68.8884 631.208 82.5861 631.208 97.76V183H588.708V111.26C588.708 100.566 586.497 93.2143 581.464 88.4998C576.413 83.7684 568.297 81.48 555.958 81.48C543.231 81.48 534.849 84.0318 529.627 89.1902C524.409 94.3443 522.128 102.315 522.128 113.69V183ZM520.588 88.31C524.098 65.63 540.298 44.03 575.668 44.03C612.658 44.03 630.208 67.79 630.208 97.76V182H589.708V111.26C589.708 89.66 580.798 80.48 555.958 80.48C530.308 80.48 521.128 90.74 521.128 113.69V182H480.628V46.73H518.158V88.31H520.588ZM747.006 183H712.526C696.592 183 683.62 179.256 674.627 171.062C665.616 162.852 660.766 150.327 660.766 133.13V81.21H639.436V45.73H660.766V19.54H703.266V45.73H747.006V81.21H703.266V128.54C703.266 135.213 704.544 139.071 707.261 141.34C710.034 143.655 714.56 144.55 721.706 144.55H747.006V183ZM702.266 20.54V46.73H746.006V80.21H702.266V128.54C702.266 142.04 707.396 145.55 721.706 145.55H746.006V182H712.526C680.936 182 661.766 167.15 661.766 133.13V80.21H640.436V46.73H661.766V20.54H702.266ZM464.088 114.5C464.088 157.16 433.038 184.7 386.868 184.7C340.698 184.7 309.648 157.16 309.648 114.5C309.648 71.3 340.698 44.03 386.868 44.03C433.038 44.03 464.088 71.3 464.088 114.5ZM349.878 114.5C349.878 138.26 359.328 148.79 386.868 148.79C414.138 148.79 423.858 138.26 423.858 114.5C423.858 90.74 414.138 79.67 386.868 79.67C359.328 79.67 349.878 90.74 349.878 114.5Z" fill="#9DD0FF" fill-opacity="0.05"/>
</svg>
