<svg width="14" height="14" viewBox="0 0 14 14" fill="none" xmlns="http://www.w3.org/2000/svg">
<path fill-rule="evenodd" clip-rule="evenodd" d="M0.414214 7C0.414214 6.44772 0.861929 6 1.41421 6L6.07108 6L6.07108 1.34313C6.07108 0.790845 6.5188 0.34313 7.07108 0.34313C7.62337 0.343129 8.07108 0.790845 8.07108 1.34313L8.07108 6H12.7279C13.2802 6 13.7279 6.44772 13.7279 7C13.7279 7.55228 13.2802 8 12.7279 8H8.07108L8.07108 12.6569C8.07108 13.2092 7.62337 13.6569 7.07108 13.6569C6.5188 13.6569 6.07108 13.2092 6.07108 12.6569L6.07108 8L1.41421 8C0.861929 8 0.414214 7.55228 0.414214 7Z" fill="white"/>
</svg>
