<svg width="1757" height="2383" viewBox="0 0 1757 2383" fill="none" xmlns="http://www.w3.org/2000/svg">
<g filter="url(#filter0_dddddd_30_141)">
<path d="M689.646 1208.58L689.651 1208.58C708.921 1200.78 729.27 1190.46 744.799 1174.06C760.418 1157.56 771 1135.08 771 1103.35C771 1071.02 759.38 1041.52 732.977 1020.17C706.659 998.889 666.011 986 608.472 986C541.557 986 494.63 1003.25 464.403 1030.7C434.151 1058.18 421 1095.53 421 1134.92V1147C421 1150.87 424.134 1154 428 1154H505.855C509.721 1154 512.855 1150.87 512.855 1147V1127.77C512.855 1109.33 517.997 1096.17 531.104 1087.38C544.536 1078.38 566.821 1073.6 602.091 1073.6C635.663 1073.6 654.705 1077.49 665.295 1083.48C670.496 1086.42 673.594 1089.84 675.435 1093.54C677.296 1097.28 677.985 1101.54 677.985 1106.33C677.985 1115.63 674.989 1122.11 668.818 1127.71C662.436 1133.49 652.595 1138.39 638.668 1144.05L638.658 1144.06L598.083 1160.72C598.077 1160.72 598.071 1160.72 598.066 1160.73C579.954 1167.93 563.103 1176.75 550.772 1189.49C538.339 1202.33 530.639 1219.01 530.639 1241.53V1258.38C530.639 1262.24 533.773 1265.38 537.639 1265.38H616.654C620.52 1265.38 623.654 1262.24 623.654 1258.38V1255.23C623.654 1247.97 624.52 1242.93 627.533 1238.64C630.593 1234.28 636.188 1230.23 646.736 1225.84C646.741 1225.84 646.746 1225.84 646.751 1225.84L689.646 1208.58ZM623.616 1397C627.482 1397 630.616 1393.87 630.616 1390V1300.92C630.616 1297.05 627.482 1293.92 623.616 1293.92H531.838C527.972 1293.92 524.838 1297.05 524.838 1300.92V1390C524.838 1393.87 527.972 1397 531.838 1397H623.616Z" stroke="url(#paint0_linear_30_141)" stroke-opacity="0.7" stroke-width="6"/>
</g>
<defs>
<filter id="filter0_dddddd_30_141" x="-564.8" y="0.200012" width="2321.6" height="2382.6" filterUnits="userSpaceOnUse" color-interpolation-filters="sRGB">
<feFlood flood-opacity="0" result="BackgroundImageFix"/>
<feColorMatrix in="SourceAlpha" type="matrix" values="0 0 0 0 0 0 0 0 0 0 0 0 0 0 0 0 0 0 127 0" result="hardAlpha"/>
<feOffset/>
<feGaussianBlur stdDeviation="11.7"/>
<feColorMatrix type="matrix" values="0 0 0 0 0.419608 0 0 0 0 0.333333 0 0 0 0 0.847059 0 0 0 1 0"/>
<feBlend mode="normal" in2="BackgroundImageFix" result="effect1_dropShadow_30_141"/>
<feColorMatrix in="SourceAlpha" type="matrix" values="0 0 0 0 0 0 0 0 0 0 0 0 0 0 0 0 0 0 127 0" result="hardAlpha"/>
<feOffset/>
<feGaussianBlur stdDeviation="23.4"/>
<feColorMatrix type="matrix" values="0 0 0 0 0.419608 0 0 0 0 0.333333 0 0 0 0 0.847059 0 0 0 1 0"/>
<feBlend mode="normal" in2="effect1_dropShadow_30_141" result="effect2_dropShadow_30_141"/>
<feColorMatrix in="SourceAlpha" type="matrix" values="0 0 0 0 0 0 0 0 0 0 0 0 0 0 0 0 0 0 127 0" result="hardAlpha"/>
<feOffset/>
<feGaussianBlur stdDeviation="81.9"/>
<feColorMatrix type="matrix" values="0 0 0 0 0.419608 0 0 0 0 0.333333 0 0 0 0 0.847059 0 0 0 1 0"/>
<feBlend mode="normal" in2="effect2_dropShadow_30_141" result="effect3_dropShadow_30_141"/>
<feColorMatrix in="SourceAlpha" type="matrix" values="0 0 0 0 0 0 0 0 0 0 0 0 0 0 0 0 0 0 127 0" result="hardAlpha"/>
<feOffset/>
<feGaussianBlur stdDeviation="163.8"/>
<feColorMatrix type="matrix" values="0 0 0 0 0.419608 0 0 0 0 0.333333 0 0 0 0 0.847059 0 0 0 1 0"/>
<feBlend mode="normal" in2="effect3_dropShadow_30_141" result="effect4_dropShadow_30_141"/>
<feColorMatrix in="SourceAlpha" type="matrix" values="0 0 0 0 0 0 0 0 0 0 0 0 0 0 0 0 0 0 127 0" result="hardAlpha"/>
<feOffset/>
<feGaussianBlur stdDeviation="280.8"/>
<feColorMatrix type="matrix" values="0 0 0 0 0.419608 0 0 0 0 0.333333 0 0 0 0 0.847059 0 0 0 1 0"/>
<feBlend mode="normal" in2="effect4_dropShadow_30_141" result="effect5_dropShadow_30_141"/>
<feColorMatrix in="SourceAlpha" type="matrix" values="0 0 0 0 0 0 0 0 0 0 0 0 0 0 0 0 0 0 127 0" result="hardAlpha"/>
<feOffset/>
<feGaussianBlur stdDeviation="491.4"/>
<feColorMatrix type="matrix" values="0 0 0 0 0.419608 0 0 0 0 0.333333 0 0 0 0 0.847059 0 0 0 1 0"/>
<feBlend mode="normal" in2="effect5_dropShadow_30_141" result="effect6_dropShadow_30_141"/>
<feBlend mode="normal" in="SourceGraphic" in2="effect6_dropShadow_30_141" result="shape"/>
</filter>
<linearGradient id="paint0_linear_30_141" x1="461.84" y1="1027.12" x2="711.888" y2="1428.92" gradientUnits="userSpaceOnUse">
<stop stop-color="#15BFFD"/>
<stop offset="1" stop-color="#9C37FD"/>
</linearGradient>
</defs>
</svg>
