<svg width="23" height="22" viewBox="0 0 23 22" fill="none" xmlns="http://www.w3.org/2000/svg">
<path fill-rule="evenodd" clip-rule="evenodd" d="M1.04785 2.7498C1.04785 1.80887 1.80675 1.0498 2.73833 1.0498C3.66991 1.0498 4.4288 1.80887 4.4288 2.7498C4.4288 3.69074 3.66991 4.4498 2.73833 4.4498C1.80675 4.4498 1.04785 3.69074 1.04785 2.7498ZM2.73833 0.0498047C1.25038 0.0498047 0.0478516 1.26068 0.0478516 2.7498C0.0478516 4.23893 1.25038 5.4498 2.73833 5.4498C4.22628 5.4498 5.4288 4.23893 5.4288 2.7498C5.4288 1.26068 4.22628 0.0498047 2.73833 0.0498047ZM15.8812 7.6498C14.2716 7.6498 12.7276 8.29195 11.5888 9.43569C10.4499 10.5795 9.80976 12.1313 9.80976 13.7498V20.9498H13.1907V13.7498C13.1907 13.0344 13.4736 12.3479 13.978 11.8414C14.4824 11.3348 15.1669 11.0498 15.8812 11.0498C16.5954 11.0498 17.28 11.3348 17.7844 11.8414C18.2887 12.3479 18.5717 13.0344 18.5717 13.7498V20.9498H21.9526V13.7498C21.9526 12.1313 21.3124 10.5795 20.1736 9.43569C19.0348 8.29195 17.4907 7.6498 15.8812 7.6498ZM10.8802 8.73011C12.2061 7.39837 14.005 6.6498 15.8812 6.6498C17.7573 6.6498 19.5562 7.39837 20.8822 8.73011C22.2081 10.0618 22.9526 11.8675 22.9526 13.7498V21.4498C22.9526 21.7259 22.7288 21.9498 22.4526 21.9498H18.0717C17.7955 21.9498 17.5717 21.7259 17.5717 21.4498V13.7498C17.5717 13.2982 17.393 12.8656 17.0758 12.547C16.7586 12.2284 16.3288 12.0498 15.8812 12.0498C15.4335 12.0498 15.0038 12.2284 14.6866 12.547C14.3693 12.8656 14.1907 13.2982 14.1907 13.7498V21.4498C14.1907 21.7259 13.9669 21.9498 13.6907 21.9498H9.30976C9.03361 21.9498 8.80976 21.7259 8.80976 21.4498V13.7498C8.80976 11.8675 9.55426 10.0618 10.8802 8.73011ZM0.0478516 8.2498C0.0478516 7.97366 0.271709 7.7498 0.547852 7.7498H4.9288C5.20495 7.7498 5.4288 7.97366 5.4288 8.2498V21.4498C5.4288 21.7259 5.20495 21.9498 4.9288 21.9498H0.547852C0.271709 21.9498 0.0478516 21.7259 0.0478516 21.4498V8.2498ZM1.04785 8.7498V20.9498H4.4288V8.7498H1.04785Z" fill="white"/>
</svg>
