<svg width="475" height="192" viewBox="0 0 475 192" fill="none" xmlns="http://www.w3.org/2000/svg">
<rect y="0.5" width="475" height="191" rx="8" fill="white" fill-opacity="0.05"/>
<path d="M31.944 46.74C36.696 46.74 38.688 44.484 38.688 42.036C38.688 39.684 37.104 38.22 33.888 37.644L29.976 36.972C28.08 36.564 27.264 36.108 27.264 34.716C27.264 33.276 28.416 32.556 31.344 32.556C34.68 32.556 35.856 33.54 35.856 35.508V35.82H38.424V35.676C38.424 32.532 36.288 30.18 31.584 30.18C26.592 30.18 24.672 32.532 24.672 34.86C24.672 37.5 26.592 38.748 29.304 39.228L33.24 39.876C35.28 40.26 36.096 40.788 36.096 42.18C36.096 43.692 35.016 44.364 31.944 44.364C28.416 44.364 27.288 43.404 27.288 41.484V41.1H24.696V41.244C24.696 44.628 27.144 46.74 31.944 46.74ZM48.3521 46.5V44.172H46.1921C44.7041 44.172 44.0321 43.788 44.0321 42.324V36.732H48.3521V34.572H44.0321V31.956H41.4641V34.572H39.4481V36.732H41.4641V42.468C41.4641 45.372 43.0481 46.5 45.6161 46.5H48.3521ZM55.9734 46.74C59.5254 46.74 62.0214 44.988 62.0214 42.444V42.228H59.4294V42.42C59.4294 43.836 58.3974 44.652 55.9014 44.652C53.1414 44.652 52.0134 43.428 51.9174 41.124H62.0454C62.1174 40.764 62.1414 40.428 62.1414 39.996C62.1414 36.372 59.6214 34.332 55.9254 34.332C52.0374 34.332 49.4934 36.828 49.4934 40.548C49.4934 44.532 52.0614 46.74 55.9734 46.74ZM55.8774 36.372C58.4214 36.372 59.6934 37.428 59.6934 39.636V39.684H51.9414C52.0854 37.548 53.2374 36.372 55.8774 36.372ZM66.6748 50.58V43.14H66.7708C67.2508 45.324 68.9788 46.74 71.6668 46.74C75.3868 46.74 77.4268 44.244 77.4268 40.548C77.4268 36.852 75.3388 34.332 71.6428 34.332C68.8348 34.332 67.1548 35.676 66.6748 37.884H66.4588V34.572H64.0828V50.58H66.6748ZM66.6748 40.74V40.524C66.6748 37.956 68.1628 36.708 70.8268 36.708C73.3228 36.708 74.8348 37.668 74.8348 40.548C74.8348 43.404 73.3468 44.388 70.7788 44.388C68.2348 44.388 66.6748 43.188 66.6748 40.74ZM88.893 46.5V30.42H86.613C85.917 31.956 84.909 32.412 83.133 32.412H82.365V34.26H86.301V46.5H88.893Z" fill="white"/>
<path d="M30.08 98.5V77.06H25.28V98.5H30.08ZM37.3925 98.5V90.404C37.3925 87.684 38.4805 86.468 41.5205 86.468C44.4645 86.468 45.5205 87.556 45.5205 90.116V98.5H50.3205V88.516C50.3205 84.964 48.2405 82.148 43.8565 82.148C39.6645 82.148 37.7445 84.708 37.3285 87.396H37.0405V82.468H32.5925V98.5H37.3925ZM64.0448 98.5V94.18H61.1648C59.4688 94.18 58.8608 93.764 58.8608 92.164V86.436H64.0448V82.468H58.8608V79.364H54.0608V82.468H51.5328V86.436H54.0608V92.708C54.0608 96.74 56.3328 98.5 60.0768 98.5H64.0448ZM70.6425 98.5V89.22C70.6425 87.204 71.4105 86.212 73.5545 86.212C75.5065 86.212 76.2105 86.98 76.2105 88.74V90.404H81.0105V87.748C81.0105 84.612 79.5385 82.148 75.9545 82.148C72.7225 82.148 71.0265 84.132 70.5785 86.724H70.2905V82.468H65.8425V98.5H70.6425ZM91.2928 98.82C96.7648 98.82 100.445 95.556 100.445 90.5C100.445 85.38 96.7648 82.148 91.2928 82.148C85.8208 82.148 82.1408 85.38 82.1408 90.5C82.1408 95.556 85.8208 98.82 91.2928 98.82ZM91.2928 94.564C88.0288 94.564 86.9088 93.316 86.9088 90.5C86.9088 87.684 88.0288 86.372 91.2928 86.372C94.5248 86.372 95.6768 87.684 95.6768 90.5C95.6768 93.316 94.5248 94.564 91.2928 94.564ZM109.573 98.82C113.253 98.82 115.365 97.22 115.973 94.052H116.229V98.5H120.709V77.06H115.909V86.724H115.621C115.077 84.036 113.125 82.148 109.317 82.148C104.549 82.148 101.829 85.38 101.829 90.5C101.829 95.556 104.581 98.82 109.573 98.82ZM106.693 90.5C106.693 87.556 108.133 86.532 111.205 86.532C114.277 86.532 115.909 87.556 115.909 90.34V90.596C115.909 93.38 114.245 94.436 111.205 94.436C108.133 94.436 106.693 93.412 106.693 90.5ZM129.873 98.82C134.097 98.82 136.049 96.292 136.465 93.604H136.721V98.5H141.201V82.468H136.401V90.596C136.401 93.316 135.281 94.532 132.145 94.532C129.105 94.532 128.017 93.444 128.017 90.852V82.468H123.217V92.452C123.217 96.036 125.361 98.82 129.873 98.82ZM152.199 98.82C157.351 98.82 160.871 96.036 160.871 91.908V91.46H156.103V91.716C156.103 93.764 154.599 94.5 152.103 94.5C149.255 94.5 147.943 93.444 147.943 90.5C147.943 87.524 149.255 86.468 152.103 86.468C154.599 86.468 156.103 87.204 156.103 89.252V89.508H160.871V89.06C160.871 84.9 157.351 82.148 152.199 82.148C146.695 82.148 143.175 85.38 143.175 90.5C143.175 95.556 146.695 98.82 152.199 98.82ZM174.232 98.5V94.18H171.352C169.656 94.18 169.048 93.764 169.048 92.164V86.436H174.232V82.468H169.048V79.364H164.248V82.468H161.72V86.436H164.248V92.708C164.248 96.74 166.52 98.5 170.264 98.5H174.232ZM180.83 80.836V77.06H176.03V80.836H180.83ZM180.83 98.5V82.468H176.03V98.5H180.83ZM191.887 98.82C197.359 98.82 201.039 95.556 201.039 90.5C201.039 85.38 197.359 82.148 191.887 82.148C186.415 82.148 182.735 85.38 182.735 90.5C182.735 95.556 186.415 98.82 191.887 98.82ZM191.887 94.564C188.623 94.564 187.503 93.316 187.503 90.5C187.503 87.684 188.623 86.372 191.887 86.372C195.119 86.372 196.271 87.684 196.271 90.5C196.271 93.316 195.119 94.564 191.887 94.564ZM207.799 98.5V90.404C207.799 87.684 208.887 86.468 211.927 86.468C214.871 86.468 215.927 87.556 215.927 90.116V98.5H220.727V88.516C220.727 84.964 218.647 82.148 214.263 82.148C210.071 82.148 208.151 84.708 207.735 87.396H207.447V82.468H202.999V98.5H207.799ZM239.389 98.5V94.18H236.509C234.812 94.18 234.205 93.764 234.205 92.164V86.436H239.389V82.468H234.205V79.364H229.405V82.468H226.877V86.436H229.405V92.708C229.405 96.74 231.677 98.5 235.421 98.5H239.389ZM249.73 98.82C255.202 98.82 258.882 95.556 258.882 90.5C258.882 85.38 255.202 82.148 249.73 82.148C244.258 82.148 240.578 85.38 240.578 90.5C240.578 95.556 244.258 98.82 249.73 98.82ZM249.73 94.564C246.466 94.564 245.346 93.316 245.346 90.5C245.346 87.684 246.466 86.372 249.73 86.372C252.962 86.372 254.114 87.684 254.114 90.5C254.114 93.316 252.962 94.564 249.73 94.564ZM270.58 98.5V90.5H283.444V86.212H270.58V81.38H283.924V77.06H265.78V98.5H270.58ZM290.768 98.5V89.22C290.768 87.204 291.536 86.212 293.68 86.212C295.632 86.212 296.336 86.98 296.336 88.74V90.404H301.135V87.748C301.135 84.612 299.664 82.148 296.08 82.148C292.848 82.148 291.152 84.132 290.704 86.724H290.416V82.468H285.968V98.5H290.768ZM311.418 98.82C316.89 98.82 320.57 95.556 320.57 90.5C320.57 85.38 316.89 82.148 311.418 82.148C305.946 82.148 302.266 85.38 302.266 90.5C302.266 95.556 305.946 98.82 311.418 98.82ZM311.418 94.564C308.154 94.564 307.034 93.316 307.034 90.5C307.034 87.684 308.154 86.372 311.418 86.372C314.65 86.372 315.802 87.684 315.802 90.5C315.802 93.316 314.65 94.564 311.418 94.564ZM327.33 98.5V90.404C327.33 87.684 328.418 86.468 331.458 86.468C334.402 86.468 335.458 87.556 335.458 90.116V98.5H340.258V88.516C340.258 84.964 338.178 82.148 333.794 82.148C329.602 82.148 327.682 84.708 327.266 87.396H326.978V82.468H322.53V98.5H327.33ZM353.982 98.5V94.18H351.102C349.406 94.18 348.798 93.764 348.798 92.164V86.436H353.982V82.468H348.798V79.364H343.998V82.468H341.47V86.436H343.998V92.708C343.998 96.74 346.27 98.5 350.014 98.5H353.982ZM367.396 91.108V86.98H355.46V91.108H367.396ZM387.768 98.5V94.18H374.424V89.86H387.288V85.572H374.424V81.38H387.768V77.06H369.624V98.5H387.768ZM394.736 98.5V90.404C394.736 87.684 395.824 86.468 398.864 86.468C401.808 86.468 402.864 87.556 402.864 90.116V98.5H407.664V88.516C407.664 84.964 405.584 82.148 401.2 82.148C397.008 82.148 395.088 84.708 394.672 87.396H394.384V82.468H389.936V98.5H394.736ZM417.26 98.82C420.941 98.82 423.053 97.22 423.661 94.052H423.917V98.5H428.397V77.06H423.597V86.724H423.309C422.765 84.036 420.813 82.148 417.005 82.148C412.237 82.148 409.517 85.38 409.517 90.5C409.517 95.556 412.269 98.82 417.26 98.82ZM414.381 90.5C414.381 87.556 415.821 86.532 418.893 86.532C421.965 86.532 423.597 87.556 423.597 90.34V90.596C423.597 93.38 421.933 94.436 418.893 94.436C415.821 94.436 414.381 93.412 414.381 90.5Z" fill="white"/>
<path d="M25.4091 140.5V128.864H26.8182V139.25H32.2273V140.5H25.4091ZM37.7727 140.682C36.9848 140.682 36.2936 140.494 35.6989 140.119C35.108 139.744 34.6458 139.22 34.3125 138.545C33.983 137.871 33.8182 137.083 33.8182 136.182C33.8182 135.273 33.983 134.479 34.3125 133.801C34.6458 133.123 35.108 132.597 35.6989 132.222C36.2936 131.847 36.9848 131.659 37.7727 131.659C38.5606 131.659 39.25 131.847 39.8409 132.222C40.4356 132.597 40.8977 133.123 41.2273 133.801C41.5606 134.479 41.7273 135.273 41.7273 136.182C41.7273 137.083 41.5606 137.871 41.2273 138.545C40.8977 139.22 40.4356 139.744 39.8409 140.119C39.25 140.494 38.5606 140.682 37.7727 140.682ZM37.7727 139.477C38.3712 139.477 38.8636 139.324 39.25 139.017C39.6364 138.71 39.9223 138.307 40.108 137.807C40.2936 137.307 40.3864 136.765 40.3864 136.182C40.3864 135.598 40.2936 135.055 40.108 134.551C39.9223 134.047 39.6364 133.64 39.25 133.33C38.8636 133.019 38.3712 132.864 37.7727 132.864C37.1742 132.864 36.6818 133.019 36.2955 133.33C35.9091 133.64 35.6231 134.047 35.4375 134.551C35.2519 135.055 35.1591 135.598 35.1591 136.182C35.1591 136.765 35.2519 137.307 35.4375 137.807C35.6231 138.307 35.9091 138.71 36.2955 139.017C36.6818 139.324 37.1742 139.477 37.7727 139.477ZM43.7741 140.5V131.773H45.0696V133.091H45.1605C45.3196 132.659 45.6075 132.309 46.0241 132.04C46.4408 131.771 46.9105 131.636 47.4332 131.636C47.5317 131.636 47.6548 131.638 47.8026 131.642C47.9503 131.646 48.062 131.652 48.1378 131.659V133.023C48.0923 133.011 47.9882 132.994 47.8253 132.972C47.6662 132.945 47.4976 132.932 47.3196 132.932C46.8954 132.932 46.5166 133.021 46.1832 133.199C45.8537 133.373 45.5923 133.616 45.3991 133.926C45.2098 134.233 45.1151 134.583 45.1151 134.977V140.5H43.7741ZM53.1207 140.682C52.2798 140.682 51.5545 140.496 50.9446 140.125C50.3385 139.75 49.8707 139.227 49.5412 138.557C49.2154 137.883 49.0526 137.098 49.0526 136.205C49.0526 135.311 49.2154 134.523 49.5412 133.841C49.8707 133.155 50.3291 132.621 50.9162 132.239C51.5071 131.852 52.1965 131.659 52.9844 131.659C53.4389 131.659 53.8878 131.735 54.331 131.886C54.7741 132.038 55.1776 132.284 55.5412 132.625C55.9048 132.962 56.1946 133.409 56.4105 133.966C56.6264 134.523 56.7344 135.208 56.7344 136.023V136.591H50.0071V135.432H55.3707C55.3707 134.939 55.2723 134.5 55.0753 134.114C54.8821 133.727 54.6056 133.422 54.2457 133.199C53.8897 132.975 53.4692 132.864 52.9844 132.864C52.4503 132.864 51.9882 132.996 51.598 133.261C51.2116 133.523 50.9143 133.864 50.706 134.284C50.4976 134.705 50.3935 135.155 50.3935 135.636V136.409C50.3935 137.068 50.5071 137.627 50.7344 138.085C50.9654 138.54 51.2855 138.886 51.6946 139.125C52.1037 139.36 52.5791 139.477 53.1207 139.477C53.473 139.477 53.7912 139.428 54.0753 139.33C54.3632 139.227 54.6113 139.076 54.8196 138.875C55.0279 138.67 55.1889 138.417 55.3026 138.114L56.598 138.477C56.4616 138.917 56.2325 139.303 55.9105 139.636C55.5885 139.966 55.1908 140.223 54.7173 140.409C54.2438 140.591 53.7116 140.682 53.1207 140.682ZM58.7741 140.5V131.773H60.0696V133.136H60.1832C60.3651 132.67 60.6586 132.309 61.0639 132.051C61.4692 131.79 61.956 131.659 62.5241 131.659C63.0999 131.659 63.5791 131.79 63.9616 132.051C64.348 132.309 64.6491 132.67 64.8651 133.136H64.956C65.1795 132.686 65.5147 132.328 65.9616 132.062C66.4086 131.794 66.9446 131.659 67.5696 131.659C68.3499 131.659 68.9882 131.903 69.4844 132.392C69.9806 132.877 70.2287 133.633 70.2287 134.659V140.5H68.8878V134.659C68.8878 134.015 68.7116 133.555 68.3594 133.278C68.0071 133.002 67.5923 132.864 67.1151 132.864C66.5014 132.864 66.026 133.049 65.6889 133.42C65.3518 133.788 65.1832 134.254 65.1832 134.818V140.5H63.8196V134.523C63.8196 134.027 63.6586 133.627 63.3366 133.324C63.0147 133.017 62.5999 132.864 62.0923 132.864C61.7438 132.864 61.4181 132.956 61.1151 133.142C60.8158 133.328 60.5734 133.585 60.3878 133.915C60.206 134.241 60.1151 134.617 60.1151 135.045V140.5H58.7741ZM77.1804 140.5V131.773H78.5213V140.5H77.1804ZM77.8622 130.318C77.6009 130.318 77.3755 130.229 77.1861 130.051C77.0005 129.873 76.9077 129.659 76.9077 129.409C76.9077 129.159 77.0005 128.945 77.1861 128.767C77.3755 128.589 77.6009 128.5 77.8622 128.5C78.1236 128.5 78.3471 128.589 78.5327 128.767C78.7221 128.945 78.8168 129.159 78.8168 129.409C78.8168 129.659 78.7221 129.873 78.5327 130.051C78.3471 130.229 78.1236 130.318 77.8622 130.318ZM80.9773 143.773V131.773H82.2727V133.159H82.4318C82.5303 133.008 82.6667 132.814 82.8409 132.58C83.0189 132.341 83.2727 132.129 83.6023 131.943C83.9356 131.754 84.3864 131.659 84.9545 131.659C85.6894 131.659 86.3371 131.843 86.8977 132.21C87.4583 132.578 87.8958 133.098 88.2102 133.773C88.5246 134.447 88.6818 135.242 88.6818 136.159C88.6818 137.083 88.5246 137.884 88.2102 138.562C87.8958 139.237 87.4602 139.759 86.9034 140.131C86.3466 140.498 85.7045 140.682 84.9773 140.682C84.4167 140.682 83.9678 140.589 83.6307 140.403C83.2936 140.214 83.0341 140 82.8523 139.761C82.6705 139.519 82.5303 139.318 82.4318 139.159H82.3182V143.773H80.9773ZM82.2955 136.136C82.2955 136.795 82.392 137.377 82.5852 137.881C82.7784 138.381 83.0606 138.773 83.4318 139.057C83.803 139.337 84.2576 139.477 84.7955 139.477C85.3561 139.477 85.8239 139.33 86.1989 139.034C86.5777 138.735 86.8617 138.333 87.0511 137.83C87.2443 137.322 87.3409 136.758 87.3409 136.136C87.3409 135.523 87.2462 134.97 87.0568 134.477C86.8712 133.981 86.589 133.589 86.2102 133.301C85.8352 133.009 85.3636 132.864 84.7955 132.864C84.25 132.864 83.7917 133.002 83.4205 133.278C83.0492 133.551 82.7689 133.934 82.5795 134.426C82.3902 134.915 82.2955 135.485 82.2955 136.136ZM96.9091 133.727L95.7045 134.068C95.6288 133.867 95.517 133.672 95.3693 133.483C95.2254 133.29 95.0284 133.131 94.7784 133.006C94.5284 132.881 94.2083 132.818 93.8182 132.818C93.2841 132.818 92.839 132.941 92.483 133.188C92.1307 133.43 91.9545 133.739 91.9545 134.114C91.9545 134.447 92.0758 134.71 92.3182 134.903C92.5606 135.097 92.9394 135.258 93.4545 135.386L94.75 135.705C95.5303 135.894 96.1117 136.184 96.4943 136.574C96.8769 136.96 97.0682 137.458 97.0682 138.068C97.0682 138.568 96.9242 139.015 96.6364 139.409C96.3523 139.803 95.9545 140.114 95.4432 140.341C94.9318 140.568 94.3371 140.682 93.6591 140.682C92.7689 140.682 92.0322 140.489 91.4489 140.102C90.8655 139.716 90.4962 139.152 90.3409 138.409L91.6136 138.091C91.7348 138.561 91.964 138.913 92.3011 139.148C92.642 139.383 93.0871 139.5 93.6364 139.5C94.2614 139.5 94.7576 139.367 95.125 139.102C95.4962 138.833 95.6818 138.511 95.6818 138.136C95.6818 137.833 95.5758 137.58 95.3636 137.375C95.1515 137.167 94.8258 137.011 94.3864 136.909L92.9318 136.568C92.1326 136.379 91.5455 136.085 91.1705 135.688C90.7992 135.286 90.6136 134.784 90.6136 134.182C90.6136 133.689 90.7519 133.254 91.0284 132.875C91.3087 132.496 91.6894 132.199 92.1705 131.983C92.6553 131.767 93.2045 131.659 93.8182 131.659C94.6818 131.659 95.3598 131.848 95.8523 132.227C96.3485 132.606 96.7008 133.106 96.9091 133.727ZM104.587 136.932V131.773H105.928V140.5H104.587V139.023H104.496C104.291 139.466 103.973 139.843 103.541 140.153C103.109 140.46 102.564 140.614 101.905 140.614C101.359 140.614 100.875 140.494 100.45 140.256C100.026 140.013 99.6927 139.65 99.4503 139.165C99.2079 138.676 99.0866 138.061 99.0866 137.318V131.773H100.428V137.227C100.428 137.864 100.606 138.371 100.962 138.75C101.321 139.129 101.78 139.318 102.337 139.318C102.67 139.318 103.009 139.233 103.354 139.062C103.702 138.892 103.994 138.631 104.229 138.278C104.467 137.926 104.587 137.477 104.587 136.932ZM108.384 140.5V131.773H109.679V133.136H109.793C109.974 132.67 110.268 132.309 110.673 132.051C111.079 131.79 111.565 131.659 112.134 131.659C112.709 131.659 113.188 131.79 113.571 132.051C113.957 132.309 114.259 132.67 114.474 133.136H114.565C114.789 132.686 115.124 132.328 115.571 132.062C116.018 131.794 116.554 131.659 117.179 131.659C117.959 131.659 118.598 131.903 119.094 132.392C119.59 132.877 119.838 133.633 119.838 134.659V140.5H118.497V134.659C118.497 134.015 118.321 133.555 117.969 133.278C117.616 133.002 117.202 132.864 116.724 132.864C116.111 132.864 115.635 133.049 115.298 133.42C114.961 133.788 114.793 134.254 114.793 134.818V140.5H113.429V134.523C113.429 134.027 113.268 133.627 112.946 133.324C112.624 133.017 112.209 132.864 111.702 132.864C111.353 132.864 111.027 132.956 110.724 133.142C110.425 133.328 110.183 133.585 109.997 133.915C109.815 134.241 109.724 134.617 109.724 135.045V140.5H108.384ZM130.085 140.682C129.358 140.682 128.716 140.498 128.159 140.131C127.602 139.759 127.167 139.237 126.852 138.562C126.538 137.884 126.381 137.083 126.381 136.159C126.381 135.242 126.538 134.447 126.852 133.773C127.167 133.098 127.604 132.578 128.165 132.21C128.725 131.843 129.373 131.659 130.108 131.659C130.676 131.659 131.125 131.754 131.455 131.943C131.788 132.129 132.042 132.341 132.216 132.58C132.394 132.814 132.532 133.008 132.631 133.159H132.744V128.864H134.085V140.5H132.79V139.159H132.631C132.532 139.318 132.392 139.519 132.21 139.761C132.028 140 131.769 140.214 131.432 140.403C131.095 140.589 130.646 140.682 130.085 140.682ZM130.267 139.477C130.805 139.477 131.259 139.337 131.631 139.057C132.002 138.773 132.284 138.381 132.477 137.881C132.67 137.377 132.767 136.795 132.767 136.136C132.767 135.485 132.672 134.915 132.483 134.426C132.294 133.934 132.013 133.551 131.642 133.278C131.271 133.002 130.813 132.864 130.267 132.864C129.699 132.864 129.225 133.009 128.847 133.301C128.472 133.589 128.189 133.981 128 134.477C127.814 134.97 127.722 135.523 127.722 136.136C127.722 136.758 127.816 137.322 128.006 137.83C128.199 138.333 128.483 138.735 128.858 139.034C129.237 139.33 129.706 139.477 130.267 139.477ZM140.273 140.682C139.485 140.682 138.794 140.494 138.199 140.119C137.608 139.744 137.146 139.22 136.812 138.545C136.483 137.871 136.318 137.083 136.318 136.182C136.318 135.273 136.483 134.479 136.812 133.801C137.146 133.123 137.608 132.597 138.199 132.222C138.794 131.847 139.485 131.659 140.273 131.659C141.061 131.659 141.75 131.847 142.341 132.222C142.936 132.597 143.398 133.123 143.727 133.801C144.061 134.479 144.227 135.273 144.227 136.182C144.227 137.083 144.061 137.871 143.727 138.545C143.398 139.22 142.936 139.744 142.341 140.119C141.75 140.494 141.061 140.682 140.273 140.682ZM140.273 139.477C140.871 139.477 141.364 139.324 141.75 139.017C142.136 138.71 142.422 138.307 142.608 137.807C142.794 137.307 142.886 136.765 142.886 136.182C142.886 135.598 142.794 135.055 142.608 134.551C142.422 134.047 142.136 133.64 141.75 133.33C141.364 133.019 140.871 132.864 140.273 132.864C139.674 132.864 139.182 133.019 138.795 133.33C138.409 133.64 138.123 134.047 137.938 134.551C137.752 135.055 137.659 135.598 137.659 136.182C137.659 136.765 137.752 137.307 137.938 137.807C138.123 138.307 138.409 138.71 138.795 139.017C139.182 139.324 139.674 139.477 140.273 139.477ZM147.615 128.864V140.5H146.274V128.864H147.615ZM153.616 140.682C152.829 140.682 152.137 140.494 151.543 140.119C150.952 139.744 150.49 139.22 150.156 138.545C149.827 137.871 149.662 137.083 149.662 136.182C149.662 135.273 149.827 134.479 150.156 133.801C150.49 133.123 150.952 132.597 151.543 132.222C152.137 131.847 152.829 131.659 153.616 131.659C154.404 131.659 155.094 131.847 155.685 132.222C156.279 132.597 156.741 133.123 157.071 133.801C157.404 134.479 157.571 135.273 157.571 136.182C157.571 137.083 157.404 137.871 157.071 138.545C156.741 139.22 156.279 139.744 155.685 140.119C155.094 140.494 154.404 140.682 153.616 140.682ZM153.616 139.477C154.215 139.477 154.707 139.324 155.094 139.017C155.48 138.71 155.766 138.307 155.952 137.807C156.137 137.307 156.23 136.765 156.23 136.182C156.23 135.598 156.137 135.055 155.952 134.551C155.766 134.047 155.48 133.64 155.094 133.33C154.707 133.019 154.215 132.864 153.616 132.864C153.018 132.864 152.526 133.019 152.139 133.33C151.753 133.64 151.467 134.047 151.281 134.551C151.096 135.055 151.003 135.598 151.003 136.182C151.003 136.765 151.096 137.307 151.281 137.807C151.467 138.307 151.753 138.71 152.139 139.017C152.526 139.324 153.018 139.477 153.616 139.477ZM159.618 140.5V131.773H160.913V133.091H161.004C161.163 132.659 161.451 132.309 161.868 132.04C162.285 131.771 162.754 131.636 163.277 131.636C163.375 131.636 163.499 131.638 163.646 131.642C163.794 131.646 163.906 131.652 163.982 131.659V133.023C163.936 133.011 163.832 132.994 163.669 132.972C163.51 132.945 163.341 132.932 163.163 132.932C162.739 132.932 162.36 133.021 162.027 133.199C161.697 133.373 161.436 133.616 161.243 133.926C161.054 134.233 160.959 134.583 160.959 134.977V140.5H159.618ZM176.253 133.727L175.048 134.068C174.973 133.867 174.861 133.672 174.713 133.483C174.569 133.29 174.372 133.131 174.122 133.006C173.872 132.881 173.552 132.818 173.162 132.818C172.628 132.818 172.183 132.941 171.827 133.188C171.474 133.43 171.298 133.739 171.298 134.114C171.298 134.447 171.42 134.71 171.662 134.903C171.904 135.097 172.283 135.258 172.798 135.386L174.094 135.705C174.874 135.894 175.455 136.184 175.838 136.574C176.221 136.96 176.412 137.458 176.412 138.068C176.412 138.568 176.268 139.015 175.98 139.409C175.696 139.803 175.298 140.114 174.787 140.341C174.276 140.568 173.681 140.682 173.003 140.682C172.113 140.682 171.376 140.489 170.793 140.102C170.209 139.716 169.84 139.152 169.685 138.409L170.957 138.091C171.079 138.561 171.308 138.913 171.645 139.148C171.986 139.383 172.431 139.5 172.98 139.5C173.605 139.5 174.101 139.367 174.469 139.102C174.84 138.833 175.026 138.511 175.026 138.136C175.026 137.833 174.92 137.58 174.707 137.375C174.495 137.167 174.17 137.011 173.73 136.909L172.276 136.568C171.476 136.379 170.889 136.085 170.514 135.688C170.143 135.286 169.957 134.784 169.957 134.182C169.957 133.689 170.096 133.254 170.372 132.875C170.652 132.496 171.033 132.199 171.514 131.983C171.999 131.767 172.548 131.659 173.162 131.659C174.026 131.659 174.704 131.848 175.196 132.227C175.692 132.606 176.045 133.106 176.253 133.727ZM178.43 140.5V131.773H179.771V140.5H178.43ZM179.112 130.318C178.851 130.318 178.625 130.229 178.436 130.051C178.25 129.873 178.158 129.659 178.158 129.409C178.158 129.159 178.25 128.945 178.436 128.767C178.625 128.589 178.851 128.5 179.112 128.5C179.374 128.5 179.597 128.589 179.783 128.767C179.972 128.945 180.067 129.159 180.067 129.409C180.067 129.659 179.972 129.873 179.783 130.051C179.597 130.229 179.374 130.318 179.112 130.318ZM186.023 131.773V132.909H181.5V131.773H186.023ZM182.818 129.682H184.159V138C184.159 138.379 184.214 138.663 184.324 138.852C184.438 139.038 184.581 139.163 184.756 139.227C184.934 139.288 185.121 139.318 185.318 139.318C185.466 139.318 185.587 139.311 185.682 139.295C185.777 139.277 185.852 139.261 185.909 139.25L186.182 140.455C186.091 140.489 185.964 140.523 185.801 140.557C185.638 140.595 185.432 140.614 185.182 140.614C184.803 140.614 184.432 140.532 184.068 140.369C183.708 140.206 183.409 139.958 183.17 139.625C182.936 139.292 182.818 138.871 182.818 138.364V129.682ZM195.108 140.705C194.555 140.705 194.053 140.6 193.602 140.392C193.152 140.18 192.794 139.875 192.528 139.477C192.263 139.076 192.131 138.591 192.131 138.023C192.131 137.523 192.229 137.117 192.426 136.807C192.623 136.492 192.886 136.246 193.216 136.068C193.545 135.89 193.909 135.758 194.307 135.67C194.708 135.58 195.112 135.508 195.517 135.455C196.047 135.386 196.477 135.335 196.807 135.301C197.14 135.263 197.383 135.201 197.534 135.114C197.689 135.027 197.767 134.875 197.767 134.659V134.614C197.767 134.053 197.614 133.617 197.307 133.307C197.004 132.996 196.544 132.841 195.926 132.841C195.286 132.841 194.784 132.981 194.42 133.261C194.057 133.542 193.801 133.841 193.653 134.159L192.381 133.705C192.608 133.174 192.911 132.761 193.29 132.466C193.672 132.167 194.089 131.958 194.54 131.841C194.994 131.72 195.441 131.659 195.881 131.659C196.161 131.659 196.483 131.693 196.847 131.761C197.214 131.826 197.568 131.96 197.909 132.165C198.254 132.369 198.54 132.678 198.767 133.091C198.994 133.504 199.108 134.057 199.108 134.75V140.5H197.767V139.318H197.699C197.608 139.508 197.456 139.71 197.244 139.926C197.032 140.142 196.75 140.326 196.398 140.477C196.045 140.629 195.616 140.705 195.108 140.705ZM195.312 139.5C195.843 139.5 196.29 139.396 196.653 139.188C197.021 138.979 197.297 138.71 197.483 138.381C197.672 138.051 197.767 137.705 197.767 137.341V136.114C197.71 136.182 197.585 136.244 197.392 136.301C197.203 136.354 196.983 136.402 196.733 136.443C196.487 136.481 196.246 136.515 196.011 136.545C195.78 136.572 195.593 136.595 195.449 136.614C195.1 136.659 194.775 136.733 194.472 136.835C194.172 136.934 193.93 137.083 193.744 137.284C193.563 137.481 193.472 137.75 193.472 138.091C193.472 138.557 193.644 138.909 193.989 139.148C194.337 139.383 194.778 139.5 195.312 139.5ZM201.555 140.5V131.773H202.851V133.136H202.964C203.146 132.67 203.44 132.309 203.845 132.051C204.25 131.79 204.737 131.659 205.305 131.659C205.881 131.659 206.36 131.79 206.743 132.051C207.129 132.309 207.43 132.67 207.646 133.136H207.737C207.961 132.686 208.296 132.328 208.743 132.062C209.19 131.794 209.726 131.659 210.351 131.659C211.131 131.659 211.769 131.903 212.266 132.392C212.762 132.877 213.01 133.633 213.01 134.659V140.5H211.669V134.659C211.669 134.015 211.493 133.555 211.141 133.278C210.788 133.002 210.374 132.864 209.896 132.864C209.283 132.864 208.807 133.049 208.47 133.42C208.133 133.788 207.964 134.254 207.964 134.818V140.5H206.601V134.523C206.601 134.027 206.44 133.627 206.118 133.324C205.796 133.017 205.381 132.864 204.874 132.864C204.525 132.864 204.199 132.956 203.896 133.142C203.597 133.328 203.355 133.585 203.169 133.915C202.987 134.241 202.896 134.617 202.896 135.045V140.5H201.555ZM219.121 140.682C218.28 140.682 217.554 140.496 216.945 140.125C216.339 139.75 215.871 139.227 215.541 138.557C215.215 137.883 215.053 137.098 215.053 136.205C215.053 135.311 215.215 134.523 215.541 133.841C215.871 133.155 216.329 132.621 216.916 132.239C217.507 131.852 218.196 131.659 218.984 131.659C219.439 131.659 219.888 131.735 220.331 131.886C220.774 132.038 221.178 132.284 221.541 132.625C221.905 132.962 222.195 133.409 222.411 133.966C222.626 134.523 222.734 135.208 222.734 136.023V136.591H216.007V135.432H221.371C221.371 134.939 221.272 134.5 221.075 134.114C220.882 133.727 220.606 133.422 220.246 133.199C219.89 132.975 219.469 132.864 218.984 132.864C218.45 132.864 217.988 132.996 217.598 133.261C217.212 133.523 216.914 133.864 216.706 134.284C216.498 134.705 216.393 135.155 216.393 135.636V136.409C216.393 137.068 216.507 137.627 216.734 138.085C216.965 138.54 217.286 138.886 217.695 139.125C218.104 139.36 218.579 139.477 219.121 139.477C219.473 139.477 219.791 139.428 220.075 139.33C220.363 139.227 220.611 139.076 220.82 138.875C221.028 138.67 221.189 138.417 221.303 138.114L222.598 138.477C222.462 138.917 222.232 139.303 221.911 139.636C221.589 139.966 221.191 140.223 220.717 140.409C220.244 140.591 219.712 140.682 219.121 140.682ZM228.57 131.773V132.909H224.047V131.773H228.57ZM225.365 129.682H226.706V138C226.706 138.379 226.761 138.663 226.871 138.852C226.984 139.038 227.128 139.163 227.303 139.227C227.481 139.288 227.668 139.318 227.865 139.318C228.013 139.318 228.134 139.311 228.229 139.295C228.323 139.277 228.399 139.261 228.456 139.25L228.729 140.455C228.638 140.489 228.511 140.523 228.348 140.557C228.185 140.595 227.979 140.614 227.729 140.614C227.35 140.614 226.979 140.532 226.615 140.369C226.255 140.206 225.956 139.958 225.717 139.625C225.482 139.292 225.365 138.871 225.365 138.364V129.682ZM238.632 140.682C237.814 140.682 237.109 140.489 236.518 140.102C235.928 139.716 235.473 139.184 235.155 138.506C234.837 137.828 234.678 137.053 234.678 136.182C234.678 135.295 234.84 134.513 235.166 133.835C235.496 133.153 235.954 132.621 236.541 132.239C237.132 131.852 237.821 131.659 238.609 131.659C239.223 131.659 239.776 131.773 240.268 132C240.761 132.227 241.164 132.545 241.479 132.955C241.793 133.364 241.988 133.841 242.064 134.386H240.723C240.621 133.989 240.393 133.636 240.041 133.33C239.693 133.019 239.223 132.864 238.632 132.864C238.109 132.864 237.651 133 237.257 133.273C236.867 133.542 236.562 133.922 236.342 134.415C236.126 134.903 236.018 135.477 236.018 136.136C236.018 136.811 236.125 137.398 236.337 137.898C236.553 138.398 236.856 138.786 237.246 139.062C237.64 139.339 238.102 139.477 238.632 139.477C238.981 139.477 239.297 139.417 239.581 139.295C239.865 139.174 240.106 139 240.303 138.773C240.5 138.545 240.64 138.273 240.723 137.955H242.064C241.988 138.47 241.801 138.934 241.501 139.347C241.206 139.756 240.814 140.081 240.325 140.324C239.84 140.562 239.276 140.682 238.632 140.682ZM247.57 140.682C246.782 140.682 246.09 140.494 245.496 140.119C244.905 139.744 244.443 139.22 244.109 138.545C243.78 137.871 243.615 137.083 243.615 136.182C243.615 135.273 243.78 134.479 244.109 133.801C244.443 133.123 244.905 132.597 245.496 132.222C246.09 131.847 246.782 131.659 247.57 131.659C248.357 131.659 249.047 131.847 249.638 132.222C250.232 132.597 250.695 133.123 251.024 133.801C251.357 134.479 251.524 135.273 251.524 136.182C251.524 137.083 251.357 137.871 251.024 138.545C250.695 139.22 250.232 139.744 249.638 140.119C249.047 140.494 248.357 140.682 247.57 140.682ZM247.57 139.477C248.168 139.477 248.661 139.324 249.047 139.017C249.433 138.71 249.719 138.307 249.905 137.807C250.09 137.307 250.183 136.765 250.183 136.182C250.183 135.598 250.09 135.055 249.905 134.551C249.719 134.047 249.433 133.64 249.047 133.33C248.661 133.019 248.168 132.864 247.57 132.864C246.971 132.864 246.479 133.019 246.092 133.33C245.706 133.64 245.42 134.047 245.234 134.551C245.049 135.055 244.956 135.598 244.956 136.182C244.956 136.765 245.049 137.307 245.234 137.807C245.42 138.307 245.706 138.71 246.092 139.017C246.479 139.324 246.971 139.477 247.57 139.477ZM254.912 135.25V140.5H253.571V131.773H254.866V133.136H254.98C255.185 132.693 255.495 132.337 255.912 132.068C256.329 131.795 256.866 131.659 257.526 131.659C258.116 131.659 258.634 131.78 259.077 132.023C259.52 132.261 259.865 132.625 260.111 133.114C260.357 133.598 260.48 134.212 260.48 134.955V140.5H259.139V135.045C259.139 134.36 258.961 133.826 258.605 133.443C258.249 133.057 257.76 132.864 257.139 132.864C256.711 132.864 256.329 132.956 255.991 133.142C255.658 133.328 255.395 133.598 255.202 133.955C255.009 134.311 254.912 134.742 254.912 135.25ZM269.112 133.727L267.908 134.068C267.832 133.867 267.72 133.672 267.572 133.483C267.429 133.29 267.232 133.131 266.982 133.006C266.732 132.881 266.411 132.818 266.021 132.818C265.487 132.818 265.042 132.941 264.686 133.188C264.334 133.43 264.158 133.739 264.158 134.114C264.158 134.447 264.279 134.71 264.521 134.903C264.764 135.097 265.143 135.258 265.658 135.386L266.953 135.705C267.733 135.894 268.315 136.184 268.697 136.574C269.08 136.96 269.271 137.458 269.271 138.068C269.271 138.568 269.127 139.015 268.839 139.409C268.555 139.803 268.158 140.114 267.646 140.341C267.135 140.568 266.54 140.682 265.862 140.682C264.972 140.682 264.235 140.489 263.652 140.102C263.069 139.716 262.699 139.152 262.544 138.409L263.817 138.091C263.938 138.561 264.167 138.913 264.504 139.148C264.845 139.383 265.29 139.5 265.839 139.5C266.464 139.5 266.961 139.367 267.328 139.102C267.699 138.833 267.885 138.511 267.885 138.136C267.885 137.833 267.779 137.58 267.567 137.375C267.355 137.167 267.029 137.011 266.589 136.909L265.135 136.568C264.336 136.379 263.749 136.085 263.374 135.688C263.002 135.286 262.817 134.784 262.817 134.182C262.817 133.689 262.955 133.254 263.232 132.875C263.512 132.496 263.893 132.199 264.374 131.983C264.858 131.767 265.408 131.659 266.021 131.659C266.885 131.659 267.563 131.848 268.055 132.227C268.552 132.606 268.904 133.106 269.112 133.727ZM274.949 140.682C274.108 140.682 273.383 140.496 272.773 140.125C272.167 139.75 271.699 139.227 271.369 138.557C271.044 137.883 270.881 137.098 270.881 136.205C270.881 135.311 271.044 134.523 271.369 133.841C271.699 133.155 272.157 132.621 272.744 132.239C273.335 131.852 274.025 131.659 274.812 131.659C275.267 131.659 275.716 131.735 276.159 131.886C276.602 132.038 277.006 132.284 277.369 132.625C277.733 132.962 278.023 133.409 278.239 133.966C278.455 134.523 278.562 135.208 278.562 136.023V136.591H271.835V135.432H277.199C277.199 134.939 277.1 134.5 276.903 134.114C276.71 133.727 276.434 133.422 276.074 133.199C275.718 132.975 275.297 132.864 274.812 132.864C274.278 132.864 273.816 132.996 273.426 133.261C273.04 133.523 272.742 133.864 272.534 134.284C272.326 134.705 272.222 135.155 272.222 135.636V136.409C272.222 137.068 272.335 137.627 272.562 138.085C272.794 138.54 273.114 138.886 273.523 139.125C273.932 139.36 274.407 139.477 274.949 139.477C275.301 139.477 275.619 139.428 275.903 139.33C276.191 139.227 276.439 139.076 276.648 138.875C276.856 138.67 277.017 138.417 277.131 138.114L278.426 138.477C278.29 138.917 278.061 139.303 277.739 139.636C277.417 139.966 277.019 140.223 276.545 140.409C276.072 140.591 275.54 140.682 274.949 140.682ZM284.148 140.682C283.33 140.682 282.625 140.489 282.034 140.102C281.443 139.716 280.989 139.184 280.67 138.506C280.352 137.828 280.193 137.053 280.193 136.182C280.193 135.295 280.356 134.513 280.682 133.835C281.011 133.153 281.47 132.621 282.057 132.239C282.648 131.852 283.337 131.659 284.125 131.659C284.739 131.659 285.292 131.773 285.784 132C286.277 132.227 286.68 132.545 286.994 132.955C287.309 133.364 287.504 133.841 287.58 134.386H286.239C286.136 133.989 285.909 133.636 285.557 133.33C285.208 133.019 284.739 132.864 284.148 132.864C283.625 132.864 283.167 133 282.773 133.273C282.383 133.542 282.078 133.922 281.858 134.415C281.642 134.903 281.534 135.477 281.534 136.136C281.534 136.811 281.64 137.398 281.852 137.898C282.068 138.398 282.371 138.786 282.761 139.062C283.155 139.339 283.617 139.477 284.148 139.477C284.496 139.477 284.812 139.417 285.097 139.295C285.381 139.174 285.621 139 285.818 138.773C286.015 138.545 286.155 138.273 286.239 137.955H287.58C287.504 138.47 287.316 138.934 287.017 139.347C286.722 139.756 286.33 140.081 285.841 140.324C285.356 140.562 284.792 140.682 284.148 140.682ZM293.335 131.773V132.909H288.812V131.773H293.335ZM290.131 129.682H291.472V138C291.472 138.379 291.527 138.663 291.636 138.852C291.75 139.038 291.894 139.163 292.068 139.227C292.246 139.288 292.434 139.318 292.631 139.318C292.778 139.318 292.9 139.311 292.994 139.295C293.089 139.277 293.165 139.261 293.222 139.25L293.494 140.455C293.403 140.489 293.277 140.523 293.114 140.557C292.951 140.595 292.744 140.614 292.494 140.614C292.116 140.614 291.744 140.532 291.381 140.369C291.021 140.206 290.722 139.958 290.483 139.625C290.248 139.292 290.131 138.871 290.131 138.364V129.682ZM298.918 140.682C298.077 140.682 297.351 140.496 296.741 140.125C296.135 139.75 295.668 139.227 295.338 138.557C295.012 137.883 294.849 137.098 294.849 136.205C294.849 135.311 295.012 134.523 295.338 133.841C295.668 133.155 296.126 132.621 296.713 132.239C297.304 131.852 297.993 131.659 298.781 131.659C299.236 131.659 299.685 131.735 300.128 131.886C300.571 132.038 300.974 132.284 301.338 132.625C301.702 132.962 301.991 133.409 302.207 133.966C302.423 134.523 302.531 135.208 302.531 136.023V136.591H295.804V135.432H301.168C301.168 134.939 301.069 134.5 300.872 134.114C300.679 133.727 300.402 133.422 300.043 133.199C299.687 132.975 299.266 132.864 298.781 132.864C298.247 132.864 297.785 132.996 297.395 133.261C297.009 133.523 296.711 133.864 296.503 134.284C296.295 134.705 296.19 135.155 296.19 135.636V136.409C296.19 137.068 296.304 137.627 296.531 138.085C296.762 138.54 297.082 138.886 297.491 139.125C297.901 139.36 298.376 139.477 298.918 139.477C299.27 139.477 299.588 139.428 299.872 139.33C300.16 139.227 300.408 139.076 300.616 138.875C300.825 138.67 300.986 138.417 301.099 138.114L302.395 138.477C302.259 138.917 302.029 139.303 301.707 139.636C301.385 139.966 300.988 140.223 300.514 140.409C300.041 140.591 299.509 140.682 298.918 140.682ZM308.366 131.773V132.909H303.844V131.773H308.366ZM305.162 129.682H306.503V138C306.503 138.379 306.558 138.663 306.668 138.852C306.781 139.038 306.925 139.163 307.099 139.227C307.277 139.288 307.465 139.318 307.662 139.318C307.81 139.318 307.931 139.311 308.026 139.295C308.12 139.277 308.196 139.261 308.253 139.25L308.526 140.455C308.435 140.489 308.308 140.523 308.145 140.557C307.982 140.595 307.776 140.614 307.526 140.614C307.147 140.614 306.776 140.532 306.412 140.369C306.052 140.206 305.753 139.958 305.514 139.625C305.279 139.292 305.162 138.871 305.162 138.364V129.682ZM315.884 136.932V131.773H317.224V140.5H315.884V139.023H315.793C315.588 139.466 315.27 139.843 314.838 140.153C314.406 140.46 313.861 140.614 313.202 140.614C312.656 140.614 312.171 140.494 311.747 140.256C311.323 140.013 310.99 139.65 310.747 139.165C310.505 138.676 310.384 138.061 310.384 137.318V131.773H311.724V137.227C311.724 137.864 311.902 138.371 312.259 138.75C312.618 139.129 313.077 139.318 313.634 139.318C313.967 139.318 314.306 139.233 314.651 139.062C314.999 138.892 315.291 138.631 315.526 138.278C315.764 137.926 315.884 137.477 315.884 136.932ZM319.68 140.5V131.773H320.976V133.091H321.067C321.226 132.659 321.514 132.309 321.93 132.04C322.347 131.771 322.817 131.636 323.339 131.636C323.438 131.636 323.561 131.638 323.709 131.642C323.857 131.646 323.968 131.652 324.044 131.659V133.023C323.999 133.011 323.894 132.994 323.732 132.972C323.572 132.945 323.404 132.932 323.226 132.932C322.802 132.932 322.423 133.021 322.089 133.199C321.76 133.373 321.499 133.616 321.305 133.926C321.116 134.233 321.021 134.583 321.021 134.977V140.5H319.68ZM325.611 140.591C325.33 140.591 325.09 140.491 324.889 140.29C324.688 140.089 324.588 139.848 324.588 139.568C324.588 139.288 324.688 139.047 324.889 138.847C325.09 138.646 325.33 138.545 325.611 138.545C325.891 138.545 326.132 138.646 326.332 138.847C326.533 139.047 326.634 139.288 326.634 139.568C326.634 139.754 326.586 139.924 326.491 140.08C326.401 140.235 326.277 140.36 326.122 140.455C325.971 140.545 325.8 140.591 325.611 140.591ZM333.722 140.5V128.864H340.744V130.114H335.131V134.045H340.381V135.295H335.131V139.25H340.835V140.5H333.722ZM344.443 128.864V140.5H343.102V128.864H344.443ZM346.899 140.5V131.773H348.24V140.5H346.899ZM347.581 130.318C347.32 130.318 347.094 130.229 346.905 130.051C346.719 129.873 346.626 129.659 346.626 129.409C346.626 129.159 346.719 128.945 346.905 128.767C347.094 128.589 347.32 128.5 347.581 128.5C347.842 128.5 348.066 128.589 348.251 128.767C348.441 128.945 348.536 129.159 348.536 129.409C348.536 129.659 348.441 129.873 348.251 130.051C348.066 130.229 347.842 130.318 347.581 130.318ZM354.491 131.773V132.909H349.969V131.773H354.491ZM351.287 129.682H352.628V138C352.628 138.379 352.683 138.663 352.793 138.852C352.906 139.038 353.05 139.163 353.224 139.227C353.402 139.288 353.59 139.318 353.787 139.318C353.935 139.318 354.056 139.311 354.151 139.295C354.245 139.277 354.321 139.261 354.378 139.25L354.651 140.455C354.56 140.489 354.433 140.523 354.27 140.557C354.107 140.595 353.901 140.614 353.651 140.614C353.272 140.614 352.901 140.532 352.537 140.369C352.177 140.206 351.878 139.958 351.639 139.625C351.404 139.292 351.287 138.871 351.287 138.364V129.682ZM361.009 140.5V131.773H362.304V133.136H362.418C362.599 132.67 362.893 132.309 363.298 132.051C363.704 131.79 364.19 131.659 364.759 131.659C365.334 131.659 365.813 131.79 366.196 132.051C366.582 132.309 366.884 132.67 367.099 133.136H367.19C367.414 132.686 367.749 132.328 368.196 132.062C368.643 131.794 369.179 131.659 369.804 131.659C370.584 131.659 371.223 131.903 371.719 132.392C372.215 132.877 372.463 133.633 372.463 134.659V140.5H371.122V134.659C371.122 134.015 370.946 133.555 370.594 133.278C370.241 133.002 369.827 132.864 369.349 132.864C368.736 132.864 368.26 133.049 367.923 133.42C367.586 133.788 367.418 134.254 367.418 134.818V140.5H366.054V134.523C366.054 134.027 365.893 133.627 365.571 133.324C365.249 133.017 364.834 132.864 364.327 132.864C363.978 132.864 363.652 132.956 363.349 133.142C363.05 133.328 362.808 133.585 362.622 133.915C362.44 134.241 362.349 134.617 362.349 135.045V140.5H361.009ZM377.483 140.705C376.93 140.705 376.428 140.6 375.977 140.392C375.527 140.18 375.169 139.875 374.903 139.477C374.638 139.076 374.506 138.591 374.506 138.023C374.506 137.523 374.604 137.117 374.801 136.807C374.998 136.492 375.261 136.246 375.591 136.068C375.92 135.89 376.284 135.758 376.682 135.67C377.083 135.58 377.487 135.508 377.892 135.455C378.422 135.386 378.852 135.335 379.182 135.301C379.515 135.263 379.758 135.201 379.909 135.114C380.064 135.027 380.142 134.875 380.142 134.659V134.614C380.142 134.053 379.989 133.617 379.682 133.307C379.379 132.996 378.919 132.841 378.301 132.841C377.661 132.841 377.159 132.981 376.795 133.261C376.432 133.542 376.176 133.841 376.028 134.159L374.756 133.705C374.983 133.174 375.286 132.761 375.665 132.466C376.047 132.167 376.464 131.958 376.915 131.841C377.369 131.72 377.816 131.659 378.256 131.659C378.536 131.659 378.858 131.693 379.222 131.761C379.589 131.826 379.943 131.96 380.284 132.165C380.629 132.369 380.915 132.678 381.142 133.091C381.369 133.504 381.483 134.057 381.483 134.75V140.5H380.142V139.318H380.074C379.983 139.508 379.831 139.71 379.619 139.926C379.407 140.142 379.125 140.326 378.773 140.477C378.42 140.629 377.991 140.705 377.483 140.705ZM377.688 139.5C378.218 139.5 378.665 139.396 379.028 139.188C379.396 138.979 379.672 138.71 379.858 138.381C380.047 138.051 380.142 137.705 380.142 137.341V136.114C380.085 136.182 379.96 136.244 379.767 136.301C379.578 136.354 379.358 136.402 379.108 136.443C378.862 136.481 378.621 136.515 378.386 136.545C378.155 136.572 377.968 136.595 377.824 136.614C377.475 136.659 377.15 136.733 376.847 136.835C376.547 136.934 376.305 137.083 376.119 137.284C375.938 137.481 375.847 137.75 375.847 138.091C375.847 138.557 376.019 138.909 376.364 139.148C376.712 139.383 377.153 139.5 377.688 139.5ZM390.112 133.727L388.908 134.068C388.832 133.867 388.72 133.672 388.572 133.483C388.429 133.29 388.232 133.131 387.982 133.006C387.732 132.881 387.411 132.818 387.021 132.818C386.487 132.818 386.042 132.941 385.686 133.188C385.334 133.43 385.158 133.739 385.158 134.114C385.158 134.447 385.279 134.71 385.521 134.903C385.764 135.097 386.143 135.258 386.658 135.386L387.953 135.705C388.733 135.894 389.315 136.184 389.697 136.574C390.08 136.96 390.271 137.458 390.271 138.068C390.271 138.568 390.127 139.015 389.839 139.409C389.555 139.803 389.158 140.114 388.646 140.341C388.135 140.568 387.54 140.682 386.862 140.682C385.972 140.682 385.235 140.489 384.652 140.102C384.069 139.716 383.699 139.152 383.544 138.409L384.817 138.091C384.938 138.561 385.167 138.913 385.504 139.148C385.845 139.383 386.29 139.5 386.839 139.5C387.464 139.5 387.961 139.367 388.328 139.102C388.699 138.833 388.885 138.511 388.885 138.136C388.885 137.833 388.779 137.58 388.567 137.375C388.355 137.167 388.029 137.011 387.589 136.909L386.135 136.568C385.336 136.379 384.749 136.085 384.374 135.688C384.002 135.286 383.817 134.784 383.817 134.182C383.817 133.689 383.955 133.254 384.232 132.875C384.512 132.496 384.893 132.199 385.374 131.983C385.858 131.767 386.408 131.659 387.021 131.659C387.885 131.659 388.563 131.848 389.055 132.227C389.552 132.606 389.904 133.106 390.112 133.727ZM398.472 133.727L397.267 134.068C397.191 133.867 397.08 133.672 396.932 133.483C396.788 133.29 396.591 133.131 396.341 133.006C396.091 132.881 395.771 132.818 395.381 132.818C394.847 132.818 394.402 132.941 394.045 133.188C393.693 133.43 393.517 133.739 393.517 134.114C393.517 134.447 393.638 134.71 393.881 134.903C394.123 135.097 394.502 135.258 395.017 135.386L396.312 135.705C397.093 135.894 397.674 136.184 398.057 136.574C398.439 136.96 398.631 137.458 398.631 138.068C398.631 138.568 398.487 139.015 398.199 139.409C397.915 139.803 397.517 140.114 397.006 140.341C396.494 140.568 395.9 140.682 395.222 140.682C394.331 140.682 393.595 140.489 393.011 140.102C392.428 139.716 392.059 139.152 391.903 138.409L393.176 138.091C393.297 138.561 393.527 138.913 393.864 139.148C394.205 139.383 394.65 139.5 395.199 139.5C395.824 139.5 396.32 139.367 396.688 139.102C397.059 138.833 397.244 138.511 397.244 138.136C397.244 137.833 397.138 137.58 396.926 137.375C396.714 137.167 396.388 137.011 395.949 136.909L394.494 136.568C393.695 136.379 393.108 136.085 392.733 135.688C392.362 135.286 392.176 134.784 392.176 134.182C392.176 133.689 392.314 133.254 392.591 132.875C392.871 132.496 393.252 132.199 393.733 131.983C394.218 131.767 394.767 131.659 395.381 131.659C396.244 131.659 396.922 131.848 397.415 132.227C397.911 132.606 398.263 133.106 398.472 133.727ZM403.217 140.705C402.664 140.705 402.162 140.6 401.712 140.392C401.261 140.18 400.903 139.875 400.638 139.477C400.373 139.076 400.24 138.591 400.24 138.023C400.24 137.523 400.339 137.117 400.536 136.807C400.732 136.492 400.996 136.246 401.325 136.068C401.655 135.89 402.018 135.758 402.416 135.67C402.818 135.58 403.221 135.508 403.626 135.455C404.157 135.386 404.587 135.335 404.916 135.301C405.25 135.263 405.492 135.201 405.643 135.114C405.799 135.027 405.876 134.875 405.876 134.659V134.614C405.876 134.053 405.723 133.617 405.416 133.307C405.113 132.996 404.653 132.841 404.036 132.841C403.395 132.841 402.893 132.981 402.53 133.261C402.166 133.542 401.911 133.841 401.763 134.159L400.49 133.705C400.717 133.174 401.02 132.761 401.399 132.466C401.782 132.167 402.198 131.958 402.649 131.841C403.104 131.72 403.551 131.659 403.99 131.659C404.27 131.659 404.592 131.693 404.956 131.761C405.323 131.826 405.678 131.96 406.018 132.165C406.363 132.369 406.649 132.678 406.876 133.091C407.104 133.504 407.217 134.057 407.217 134.75V140.5H405.876V139.318H405.808C405.717 139.508 405.566 139.71 405.354 139.926C405.142 140.142 404.859 140.326 404.507 140.477C404.155 140.629 403.725 140.705 403.217 140.705ZM403.422 139.5C403.952 139.5 404.399 139.396 404.763 139.188C405.13 138.979 405.407 138.71 405.592 138.381C405.782 138.051 405.876 137.705 405.876 137.341V136.114C405.82 136.182 405.695 136.244 405.501 136.301C405.312 136.354 405.092 136.402 404.842 136.443C404.596 136.481 404.356 136.515 404.121 136.545C403.89 136.572 403.702 136.595 403.558 136.614C403.21 136.659 402.884 136.733 402.581 136.835C402.282 136.934 402.039 137.083 401.854 137.284C401.672 137.481 401.581 137.75 401.581 138.091C401.581 138.557 401.753 138.909 402.098 139.148C402.446 139.383 402.888 139.5 403.422 139.5ZM28.8864 162.682C28.0455 162.682 27.3201 162.496 26.7102 162.125C26.1042 161.75 25.6364 161.227 25.3068 160.557C24.9811 159.883 24.8182 159.098 24.8182 158.205C24.8182 157.311 24.9811 156.523 25.3068 155.841C25.6364 155.155 26.0947 154.621 26.6818 154.239C27.2727 153.852 27.9621 153.659 28.75 153.659C29.2045 153.659 29.6534 153.735 30.0966 153.886C30.5398 154.038 30.9432 154.284 31.3068 154.625C31.6705 154.962 31.9602 155.409 32.1761 155.966C32.392 156.523 32.5 157.208 32.5 158.023V158.591H25.7727V157.432H31.1364C31.1364 156.939 31.0379 156.5 30.8409 156.114C30.6477 155.727 30.3712 155.422 30.0114 155.199C29.6553 154.975 29.2348 154.864 28.75 154.864C28.2159 154.864 27.7538 154.996 27.3636 155.261C26.9773 155.523 26.6799 155.864 26.4716 156.284C26.2633 156.705 26.1591 157.155 26.1591 157.636V158.409C26.1591 159.068 26.2727 159.627 26.5 160.085C26.7311 160.54 27.0511 160.886 27.4602 161.125C27.8693 161.36 28.3447 161.477 28.8864 161.477C29.2386 161.477 29.5568 161.428 29.8409 161.33C30.1288 161.227 30.3769 161.076 30.5852 160.875C30.7936 160.67 30.9545 160.417 31.0682 160.114L32.3636 160.477C32.2273 160.917 31.9981 161.303 31.6761 161.636C31.3542 161.966 30.9564 162.223 30.483 162.409C30.0095 162.591 29.4773 162.682 28.8864 162.682ZM34.5398 162.5V153.773H35.8352V155.091H35.9261C36.0852 154.659 36.3731 154.309 36.7898 154.04C37.2064 153.771 37.6761 153.636 38.1989 153.636C38.2973 153.636 38.4205 153.638 38.5682 153.642C38.7159 153.646 38.8277 153.652 38.9034 153.659V155.023C38.858 155.011 38.7538 154.994 38.5909 154.972C38.4318 154.945 38.2633 154.932 38.0852 154.932C37.661 154.932 37.2822 155.021 36.9489 155.199C36.6193 155.373 36.358 155.616 36.1648 155.926C35.9754 156.233 35.8807 156.583 35.8807 156.977V162.5H34.5398ZM43.0611 162.705C42.508 162.705 42.0062 162.6 41.5554 162.392C41.1046 162.18 40.7467 161.875 40.4815 161.477C40.2164 161.076 40.0838 160.591 40.0838 160.023C40.0838 159.523 40.1823 159.117 40.3793 158.807C40.5762 158.492 40.8395 158.246 41.169 158.068C41.4986 157.89 41.8622 157.758 42.2599 157.67C42.6615 157.58 43.0649 157.508 43.4702 157.455C44.0005 157.386 44.4304 157.335 44.7599 157.301C45.0933 157.263 45.3357 157.201 45.4872 157.114C45.6425 157.027 45.7202 156.875 45.7202 156.659V156.614C45.7202 156.053 45.5668 155.617 45.2599 155.307C44.9569 154.996 44.4967 154.841 43.8793 154.841C43.2391 154.841 42.7372 154.981 42.3736 155.261C42.0099 155.542 41.7543 155.841 41.6065 156.159L40.3338 155.705C40.5611 155.174 40.8641 154.761 41.2429 154.466C41.6255 154.167 42.0421 153.958 42.4929 153.841C42.9474 153.72 43.3944 153.659 43.8338 153.659C44.1141 153.659 44.4361 153.693 44.7997 153.761C45.1671 153.826 45.5213 153.96 45.8622 154.165C46.2069 154.369 46.4929 154.678 46.7202 155.091C46.9474 155.504 47.0611 156.057 47.0611 156.75V162.5H45.7202V161.318H45.652C45.5611 161.508 45.4096 161.71 45.1974 161.926C44.9853 162.142 44.7031 162.326 44.3509 162.477C43.9986 162.629 43.5687 162.705 43.0611 162.705ZM43.2656 161.5C43.7959 161.5 44.2429 161.396 44.6065 161.188C44.974 160.979 45.2505 160.71 45.4361 160.381C45.6255 160.051 45.7202 159.705 45.7202 159.341V158.114C45.6634 158.182 45.5384 158.244 45.3452 158.301C45.1558 158.354 44.9361 158.402 44.6861 158.443C44.4399 158.481 44.1993 158.515 43.9645 158.545C43.7334 158.572 43.5459 158.595 43.402 158.614C43.0535 158.659 42.7277 158.733 42.4247 158.835C42.1255 158.934 41.883 159.083 41.6974 159.284C41.5156 159.481 41.4247 159.75 41.4247 160.091C41.4247 160.557 41.5971 160.909 41.9418 161.148C42.2902 161.383 42.7315 161.5 43.2656 161.5ZM53.304 153.773V154.909H48.7812V153.773H53.304ZM50.0994 151.682H51.4403V160C51.4403 160.379 51.4953 160.663 51.6051 160.852C51.7188 161.038 51.8627 161.163 52.0369 161.227C52.215 161.288 52.4025 161.318 52.5994 161.318C52.7472 161.318 52.8684 161.311 52.9631 161.295C53.0578 161.277 53.1335 161.261 53.1903 161.25L53.4631 162.455C53.3722 162.489 53.2453 162.523 53.0824 162.557C52.9195 162.595 52.7131 162.614 52.4631 162.614C52.0843 162.614 51.7131 162.532 51.3494 162.369C50.9896 162.206 50.6903 161.958 50.4517 161.625C50.2169 161.292 50.0994 160.871 50.0994 160.364V151.682ZM66.9574 153.773L63.7301 162.5H62.3665L59.1392 153.773H60.5938L63.0028 160.727H63.0938L65.5028 153.773H66.9574ZM68.7273 162.5V153.773H70.0682V162.5H68.7273ZM69.4091 152.318C69.1477 152.318 68.9223 152.229 68.733 152.051C68.5473 151.873 68.4545 151.659 68.4545 151.409C68.4545 151.159 68.5473 150.945 68.733 150.767C68.9223 150.589 69.1477 150.5 69.4091 150.5C69.6705 150.5 69.8939 150.589 70.0795 150.767C70.2689 150.945 70.3636 151.159 70.3636 151.409C70.3636 151.659 70.2689 151.873 70.0795 152.051C69.8939 152.229 69.6705 152.318 69.4091 152.318ZM76.3196 153.773V154.909H71.7969V153.773H76.3196ZM73.1151 151.682H74.456V160C74.456 160.379 74.5109 160.663 74.6207 160.852C74.7344 161.038 74.8783 161.163 75.0526 161.227C75.2306 161.288 75.4181 161.318 75.6151 161.318C75.7628 161.318 75.884 161.311 75.9787 161.295C76.0734 161.277 76.1491 161.261 76.206 161.25L76.4787 162.455C76.3878 162.489 76.2609 162.523 76.098 162.557C75.9351 162.595 75.7287 162.614 75.4787 162.614C75.0999 162.614 74.7287 162.532 74.3651 162.369C74.0052 162.206 73.706 161.958 73.4673 161.625C73.2325 161.292 73.1151 160.871 73.1151 160.364V151.682ZM80.9048 162.705C80.3518 162.705 79.8499 162.6 79.3991 162.392C78.9484 162.18 78.5904 161.875 78.3253 161.477C78.0601 161.076 77.9276 160.591 77.9276 160.023C77.9276 159.523 78.026 159.117 78.223 158.807C78.42 158.492 78.6832 158.246 79.0128 158.068C79.3423 157.89 79.706 157.758 80.1037 157.67C80.5052 157.58 80.9086 157.508 81.3139 157.455C81.8442 157.386 82.2741 157.335 82.6037 157.301C82.937 157.263 83.1795 157.201 83.331 157.114C83.4863 157.027 83.5639 156.875 83.5639 156.659V156.614C83.5639 156.053 83.4105 155.617 83.1037 155.307C82.8007 154.996 82.3404 154.841 81.723 154.841C81.0829 154.841 80.581 154.981 80.2173 155.261C79.8537 155.542 79.598 155.841 79.4503 156.159L78.1776 155.705C78.4048 155.174 78.7079 154.761 79.0866 154.466C79.4692 154.167 79.8859 153.958 80.3366 153.841C80.7912 153.72 81.2382 153.659 81.6776 153.659C81.9579 153.659 82.2798 153.693 82.6435 153.761C83.0109 153.826 83.3651 153.96 83.706 154.165C84.0507 154.369 84.3366 154.678 84.5639 155.091C84.7912 155.504 84.9048 156.057 84.9048 156.75V162.5H83.5639V161.318H83.4957C83.4048 161.508 83.2533 161.71 83.0412 161.926C82.8291 162.142 82.5469 162.326 82.1946 162.477C81.8423 162.629 81.4124 162.705 80.9048 162.705ZM81.1094 161.5C81.6397 161.5 82.0866 161.396 82.4503 161.188C82.8177 160.979 83.0942 160.71 83.2798 160.381C83.4692 160.051 83.5639 159.705 83.5639 159.341V158.114C83.5071 158.182 83.3821 158.244 83.1889 158.301C82.9995 158.354 82.7798 158.402 82.5298 158.443C82.2836 158.481 82.0431 158.515 81.8082 158.545C81.5772 158.572 81.3897 158.595 81.2457 158.614C80.8973 158.659 80.5715 158.733 80.2685 158.835C79.9692 158.934 79.7268 159.083 79.5412 159.284C79.3594 159.481 79.2685 159.75 79.2685 160.091C79.2685 160.557 79.4408 160.909 79.7855 161.148C80.134 161.383 80.5753 161.5 81.1094 161.5ZM91.0114 162.682C90.1705 162.682 89.4451 162.496 88.8352 162.125C88.2292 161.75 87.7614 161.227 87.4318 160.557C87.1061 159.883 86.9432 159.098 86.9432 158.205C86.9432 157.311 87.1061 156.523 87.4318 155.841C87.7614 155.155 88.2197 154.621 88.8068 154.239C89.3977 153.852 90.0871 153.659 90.875 153.659C91.3295 153.659 91.7784 153.735 92.2216 153.886C92.6648 154.038 93.0682 154.284 93.4318 154.625C93.7955 154.962 94.0852 155.409 94.3011 155.966C94.517 156.523 94.625 157.208 94.625 158.023V158.591H87.8977V157.432H93.2614C93.2614 156.939 93.1629 156.5 92.9659 156.114C92.7727 155.727 92.4962 155.422 92.1364 155.199C91.7803 154.975 91.3598 154.864 90.875 154.864C90.3409 154.864 89.8788 154.996 89.4886 155.261C89.1023 155.523 88.8049 155.864 88.5966 156.284C88.3883 156.705 88.2841 157.155 88.2841 157.636V158.409C88.2841 159.068 88.3977 159.627 88.625 160.085C88.8561 160.54 89.1761 160.886 89.5852 161.125C89.9943 161.36 90.4697 161.477 91.0114 161.477C91.3636 161.477 91.6818 161.428 91.9659 161.33C92.2538 161.227 92.5019 161.076 92.7102 160.875C92.9186 160.67 93.0795 160.417 93.1932 160.114L94.4886 160.477C94.3523 160.917 94.1231 161.303 93.8011 161.636C93.4792 161.966 93.0814 162.223 92.608 162.409C92.1345 162.591 91.6023 162.682 91.0114 162.682ZM102.506 157.25V162.5H101.165V153.773H102.46V155.136H102.574C102.778 154.693 103.089 154.337 103.506 154.068C103.922 153.795 104.46 153.659 105.119 153.659C105.71 153.659 106.227 153.78 106.67 154.023C107.114 154.261 107.458 154.625 107.705 155.114C107.951 155.598 108.074 156.212 108.074 156.955V162.5H106.733V157.045C106.733 156.36 106.555 155.826 106.199 155.443C105.843 155.057 105.354 154.864 104.733 154.864C104.305 154.864 103.922 154.956 103.585 155.142C103.252 155.328 102.989 155.598 102.795 155.955C102.602 156.311 102.506 156.742 102.506 157.25ZM114.07 162.682C113.282 162.682 112.59 162.494 111.996 162.119C111.405 161.744 110.943 161.22 110.609 160.545C110.28 159.871 110.115 159.083 110.115 158.182C110.115 157.273 110.28 156.479 110.609 155.801C110.943 155.123 111.405 154.597 111.996 154.222C112.59 153.847 113.282 153.659 114.07 153.659C114.857 153.659 115.547 153.847 116.138 154.222C116.732 154.597 117.195 155.123 117.524 155.801C117.857 156.479 118.024 157.273 118.024 158.182C118.024 159.083 117.857 159.871 117.524 160.545C117.195 161.22 116.732 161.744 116.138 162.119C115.547 162.494 114.857 162.682 114.07 162.682ZM114.07 161.477C114.668 161.477 115.161 161.324 115.547 161.017C115.933 160.71 116.219 160.307 116.405 159.807C116.59 159.307 116.683 158.765 116.683 158.182C116.683 157.598 116.59 157.055 116.405 156.551C116.219 156.047 115.933 155.64 115.547 155.33C115.161 155.019 114.668 154.864 114.07 154.864C113.471 154.864 112.979 155.019 112.592 155.33C112.206 155.64 111.92 156.047 111.734 156.551C111.549 157.055 111.456 157.598 111.456 158.182C111.456 158.765 111.549 159.307 111.734 159.807C111.92 160.307 112.206 160.71 112.592 161.017C112.979 161.324 113.471 161.477 114.07 161.477ZM121.412 157.25V162.5H120.071V153.773H121.366V155.136H121.48C121.685 154.693 121.995 154.337 122.412 154.068C122.829 153.795 123.366 153.659 124.026 153.659C124.616 153.659 125.134 153.78 125.577 154.023C126.02 154.261 126.365 154.625 126.611 155.114C126.857 155.598 126.98 156.212 126.98 156.955V162.5H125.639V157.045C125.639 156.36 125.461 155.826 125.105 155.443C124.749 155.057 124.26 154.864 123.639 154.864C123.211 154.864 122.829 154.956 122.491 155.142C122.158 155.328 121.895 155.598 121.702 155.955C121.509 156.311 121.412 156.742 121.412 157.25ZM140.112 155.727L138.908 156.068C138.832 155.867 138.72 155.672 138.572 155.483C138.429 155.29 138.232 155.131 137.982 155.006C137.732 154.881 137.411 154.818 137.021 154.818C136.487 154.818 136.042 154.941 135.686 155.188C135.334 155.43 135.158 155.739 135.158 156.114C135.158 156.447 135.279 156.71 135.521 156.903C135.764 157.097 136.143 157.258 136.658 157.386L137.953 157.705C138.733 157.894 139.315 158.184 139.697 158.574C140.08 158.96 140.271 159.458 140.271 160.068C140.271 160.568 140.127 161.015 139.839 161.409C139.555 161.803 139.158 162.114 138.646 162.341C138.135 162.568 137.54 162.682 136.862 162.682C135.972 162.682 135.235 162.489 134.652 162.102C134.069 161.716 133.699 161.152 133.544 160.409L134.817 160.091C134.938 160.561 135.167 160.913 135.504 161.148C135.845 161.383 136.29 161.5 136.839 161.5C137.464 161.5 137.961 161.367 138.328 161.102C138.699 160.833 138.885 160.511 138.885 160.136C138.885 159.833 138.779 159.58 138.567 159.375C138.355 159.167 138.029 159.011 137.589 158.909L136.135 158.568C135.336 158.379 134.749 158.085 134.374 157.688C134.002 157.286 133.817 156.784 133.817 156.182C133.817 155.689 133.955 155.254 134.232 154.875C134.512 154.496 134.893 154.199 135.374 153.983C135.858 153.767 136.408 153.659 137.021 153.659C137.885 153.659 138.563 153.848 139.055 154.227C139.552 154.606 139.904 155.106 140.112 155.727ZM145.949 162.682C145.108 162.682 144.383 162.496 143.773 162.125C143.167 161.75 142.699 161.227 142.369 160.557C142.044 159.883 141.881 159.098 141.881 158.205C141.881 157.311 142.044 156.523 142.369 155.841C142.699 155.155 143.157 154.621 143.744 154.239C144.335 153.852 145.025 153.659 145.812 153.659C146.267 153.659 146.716 153.735 147.159 153.886C147.602 154.038 148.006 154.284 148.369 154.625C148.733 154.962 149.023 155.409 149.239 155.966C149.455 156.523 149.562 157.208 149.562 158.023V158.591H142.835V157.432H148.199C148.199 156.939 148.1 156.5 147.903 156.114C147.71 155.727 147.434 155.422 147.074 155.199C146.718 154.975 146.297 154.864 145.812 154.864C145.278 154.864 144.816 154.996 144.426 155.261C144.04 155.523 143.742 155.864 143.534 156.284C143.326 156.705 143.222 157.155 143.222 157.636V158.409C143.222 159.068 143.335 159.627 143.562 160.085C143.794 160.54 144.114 160.886 144.523 161.125C144.932 161.36 145.407 161.477 145.949 161.477C146.301 161.477 146.619 161.428 146.903 161.33C147.191 161.227 147.439 161.076 147.648 160.875C147.856 160.67 148.017 160.417 148.131 160.114L149.426 160.477C149.29 160.917 149.061 161.303 148.739 161.636C148.417 161.966 148.019 162.223 147.545 162.409C147.072 162.591 146.54 162.682 145.949 162.682ZM151.602 162.5V153.773H152.898V155.136H153.011C153.193 154.67 153.487 154.309 153.892 154.051C154.297 153.79 154.784 153.659 155.352 153.659C155.928 153.659 156.407 153.79 156.79 154.051C157.176 154.309 157.477 154.67 157.693 155.136H157.784C158.008 154.686 158.343 154.328 158.79 154.062C159.237 153.794 159.773 153.659 160.398 153.659C161.178 153.659 161.816 153.903 162.312 154.392C162.809 154.877 163.057 155.633 163.057 156.659V162.5H161.716V156.659C161.716 156.015 161.54 155.555 161.188 155.278C160.835 155.002 160.42 154.864 159.943 154.864C159.33 154.864 158.854 155.049 158.517 155.42C158.18 155.788 158.011 156.254 158.011 156.818V162.5H156.648V156.523C156.648 156.027 156.487 155.627 156.165 155.324C155.843 155.017 155.428 154.864 154.92 154.864C154.572 154.864 154.246 154.956 153.943 155.142C153.644 155.328 153.402 155.585 153.216 155.915C153.034 156.241 152.943 156.617 152.943 157.045V162.5H151.602ZM165.509 165.773V153.773H166.804V155.159H166.963C167.062 155.008 167.198 154.814 167.372 154.58C167.55 154.341 167.804 154.129 168.134 153.943C168.467 153.754 168.918 153.659 169.486 153.659C170.221 153.659 170.868 153.843 171.429 154.21C171.99 154.578 172.427 155.098 172.741 155.773C173.056 156.447 173.213 157.242 173.213 158.159C173.213 159.083 173.056 159.884 172.741 160.562C172.427 161.237 171.991 161.759 171.435 162.131C170.878 162.498 170.236 162.682 169.509 162.682C168.948 162.682 168.499 162.589 168.162 162.403C167.825 162.214 167.565 162 167.384 161.761C167.202 161.519 167.062 161.318 166.963 161.159H166.849V165.773H165.509ZM166.827 158.136C166.827 158.795 166.923 159.377 167.116 159.881C167.31 160.381 167.592 160.773 167.963 161.057C168.334 161.337 168.789 161.477 169.327 161.477C169.887 161.477 170.355 161.33 170.73 161.034C171.109 160.735 171.393 160.333 171.582 159.83C171.776 159.322 171.872 158.758 171.872 158.136C171.872 157.523 171.777 156.97 171.588 156.477C171.402 155.981 171.12 155.589 170.741 155.301C170.366 155.009 169.895 154.864 169.327 154.864C168.781 154.864 168.323 155.002 167.952 155.278C167.58 155.551 167.3 155.934 167.111 156.426C166.921 156.915 166.827 157.485 166.827 158.136ZM178.918 162.682C178.077 162.682 177.351 162.496 176.741 162.125C176.135 161.75 175.668 161.227 175.338 160.557C175.012 159.883 174.849 159.098 174.849 158.205C174.849 157.311 175.012 156.523 175.338 155.841C175.668 155.155 176.126 154.621 176.713 154.239C177.304 153.852 177.993 153.659 178.781 153.659C179.236 153.659 179.685 153.735 180.128 153.886C180.571 154.038 180.974 154.284 181.338 154.625C181.702 154.962 181.991 155.409 182.207 155.966C182.423 156.523 182.531 157.208 182.531 158.023V158.591H175.804V157.432H181.168C181.168 156.939 181.069 156.5 180.872 156.114C180.679 155.727 180.402 155.422 180.043 155.199C179.687 154.975 179.266 154.864 178.781 154.864C178.247 154.864 177.785 154.996 177.395 155.261C177.009 155.523 176.711 155.864 176.503 156.284C176.295 156.705 176.19 157.155 176.19 157.636V158.409C176.19 159.068 176.304 159.627 176.531 160.085C176.762 160.54 177.082 160.886 177.491 161.125C177.901 161.36 178.376 161.477 178.918 161.477C179.27 161.477 179.588 161.428 179.872 161.33C180.16 161.227 180.408 161.076 180.616 160.875C180.825 160.67 180.986 160.417 181.099 160.114L182.395 160.477C182.259 160.917 182.029 161.303 181.707 161.636C181.385 161.966 180.988 162.223 180.514 162.409C180.041 162.591 179.509 162.682 178.918 162.682ZM184.571 162.5V153.773H185.866V155.091H185.957C186.116 154.659 186.404 154.309 186.821 154.04C187.238 153.771 187.707 153.636 188.23 153.636C188.329 153.636 188.452 153.638 188.599 153.642C188.747 153.646 188.859 153.652 188.935 153.659V155.023C188.889 155.011 188.785 154.994 188.622 154.972C188.463 154.945 188.295 154.932 188.116 154.932C187.692 154.932 187.313 155.021 186.98 155.199C186.651 155.373 186.389 155.616 186.196 155.926C186.007 156.233 185.912 156.583 185.912 156.977V162.5H184.571ZM200.979 165.773V161.159H200.865C200.767 161.318 200.626 161.519 200.445 161.761C200.263 162 200.003 162.214 199.666 162.403C199.329 162.589 198.88 162.682 198.32 162.682C197.592 162.682 196.95 162.498 196.393 162.131C195.837 161.759 195.401 161.237 195.087 160.562C194.772 159.884 194.615 159.083 194.615 158.159C194.615 157.242 194.772 156.447 195.087 155.773C195.401 155.098 195.839 154.578 196.399 154.21C196.96 153.843 197.607 153.659 198.342 153.659C198.911 153.659 199.359 153.754 199.689 153.943C200.022 154.129 200.276 154.341 200.45 154.58C200.628 154.814 200.767 155.008 200.865 155.159H201.024V153.773H202.32V165.773H200.979ZM198.501 161.477C199.039 161.477 199.494 161.337 199.865 161.057C200.236 160.773 200.518 160.381 200.712 159.881C200.905 159.377 201.001 158.795 201.001 158.136C201.001 157.485 200.907 156.915 200.717 156.426C200.528 155.934 200.248 155.551 199.876 155.278C199.505 155.002 199.047 154.864 198.501 154.864C197.933 154.864 197.46 155.009 197.081 155.301C196.706 155.589 196.424 155.981 196.234 156.477C196.049 156.97 195.956 157.523 195.956 158.136C195.956 158.758 196.051 159.322 196.24 159.83C196.433 160.333 196.717 160.735 197.092 161.034C197.471 161.33 197.941 161.477 198.501 161.477ZM210.274 158.932V153.773H211.615V162.5H210.274V161.023H210.183C209.979 161.466 209.661 161.843 209.229 162.153C208.797 162.46 208.251 162.614 207.592 162.614C207.047 162.614 206.562 162.494 206.138 162.256C205.714 162.013 205.38 161.65 205.138 161.165C204.895 160.676 204.774 160.061 204.774 159.318V153.773H206.115V159.227C206.115 159.864 206.293 160.371 206.649 160.75C207.009 161.129 207.467 161.318 208.024 161.318C208.357 161.318 208.696 161.233 209.041 161.062C209.39 160.892 209.681 160.631 209.916 160.278C210.155 159.926 210.274 159.477 210.274 158.932ZM214.071 162.5V153.773H215.412V162.5H214.071ZM214.753 152.318C214.491 152.318 214.266 152.229 214.077 152.051C213.891 151.873 213.798 151.659 213.798 151.409C213.798 151.159 213.891 150.945 214.077 150.767C214.266 150.589 214.491 150.5 214.753 150.5C215.014 150.5 215.238 150.589 215.423 150.767C215.613 150.945 215.707 151.159 215.707 151.409C215.707 151.659 215.613 151.873 215.423 152.051C215.238 152.229 215.014 152.318 214.753 152.318ZM224.05 155.727L222.845 156.068C222.769 155.867 222.658 155.672 222.51 155.483C222.366 155.29 222.169 155.131 221.919 155.006C221.669 154.881 221.349 154.818 220.959 154.818C220.425 154.818 219.98 154.941 219.624 155.188C219.271 155.43 219.095 155.739 219.095 156.114C219.095 156.447 219.216 156.71 219.459 156.903C219.701 157.097 220.08 157.258 220.595 157.386L221.891 157.705C222.671 157.894 223.252 158.184 223.635 158.574C224.018 158.96 224.209 159.458 224.209 160.068C224.209 160.568 224.065 161.015 223.777 161.409C223.493 161.803 223.095 162.114 222.584 162.341C222.072 162.568 221.478 162.682 220.8 162.682C219.91 162.682 219.173 162.489 218.589 162.102C218.006 161.716 217.637 161.152 217.482 160.409L218.754 160.091C218.875 160.561 219.105 160.913 219.442 161.148C219.783 161.383 220.228 161.5 220.777 161.5C221.402 161.5 221.898 161.367 222.266 161.102C222.637 160.833 222.822 160.511 222.822 160.136C222.822 159.833 222.716 159.58 222.504 159.375C222.292 159.167 221.966 159.011 221.527 158.909L220.072 158.568C219.273 158.379 218.686 158.085 218.311 157.688C217.94 157.286 217.754 156.784 217.754 156.182C217.754 155.689 217.893 155.254 218.169 154.875C218.449 154.496 218.83 154.199 219.311 153.983C219.796 153.767 220.345 153.659 220.959 153.659C221.822 153.659 222.5 153.848 222.993 154.227C223.489 154.606 223.841 155.106 224.05 155.727ZM227.205 162.591C226.924 162.591 226.684 162.491 226.483 162.29C226.282 162.089 226.182 161.848 226.182 161.568C226.182 161.288 226.282 161.047 226.483 160.847C226.684 160.646 226.924 160.545 227.205 160.545C227.485 160.545 227.725 160.646 227.926 160.847C228.127 161.047 228.227 161.288 228.227 161.568C228.227 161.754 228.18 161.924 228.085 162.08C227.994 162.235 227.871 162.36 227.716 162.455C227.564 162.545 227.394 162.591 227.205 162.591Z" fill="#A2CBFB"/>
<rect x="0.5" y="1" width="474" height="190" rx="7.5" stroke="url(#paint0_linear_47_161)" stroke-opacity="0.7"/>
<defs>
<linearGradient id="paint0_linear_47_161" x1="52.25" y1="18.4792" x2="105.709" y2="269.993" gradientUnits="userSpaceOnUse">
<stop stop-color="#15BFFD"/>
<stop offset="1" stop-color="#9C37FD"/>
</linearGradient>
</defs>
</svg>
